<?xml version="1.0" encoding="utf-8"?>
<!-- Generator: Adobe Illustrator 23.0.6, SVG Export Plug-In . SVG Version: 6.00 Build 0)  -->
<svg version="1.1" id="Layer_1" xmlns="http://www.w3.org/2000/svg" xmlns:xlink="http://www.w3.org/1999/xlink" x="0px" y="0px"
	 viewBox="0 0 1442 388" style="enable-background:new 0 0 1442 388;" xml:space="preserve">
<style type="text/css">
	.st0{fill:#78C2FF;}
	.st1{fill:#E4F3FE;}
	.st2{fill:#1A598C;}
	.st3{fill:#4DA8F2;}
	.st4{fill:#B3DCFF;}
	.st5{fill:#E3F2FF;}
	.st6{fill:#71B8F0;}
	.st7{fill:#68B1F5;}
	.st8{fill:#74BBF5;}
	.st9{fill:#73C0FF;}
	.st10{fill:#869135;}
	.st11{fill:#48753A;}
	.st12{fill:#1A366B;}
	.st13{fill:#73BAF4;}
	.st14{fill:#6EB8F5;}
	.st15{fill:#63B3F5;}
	.st16{fill:#484E7D;}
	.st17{fill:#EEA886;}
	.st18{fill:#5B639E;}
	.st19{fill:#292C47;}
	.st20{fill:#FF7E55;}
	.st21{fill:#323657;}
	.st22{fill:#807066;}
	.st23{fill:#D88A51;}
	.st24{fill:#A77860;}
	.st25{fill:#D6C5BF;}
	.st26{fill:#D6D6D6;}
	.st27{fill:#E8E8E8;}
	.st28{fill:#C2C2C2;}
	.st29{fill:#C2BEBC;}
</style>
<title>Group</title>
<desc>Created with Sketch.</desc>
<g id="Page-1">
	<g id="Group" transform="translate(-0.000000, -27.000000)">
		<g id="Group-27" transform="translate(1074.000000, 70.000000)">
			<polygon id="Fill-26" class="st0" points="0,107.8 82.4,107.8 82.4,106.8 0,106.8 			"/>
			<path id="Fill-41" class="st1" d="M54.9,94.4h-9.2c1-4.8,4.6-8.7,9.2-10.2V94.4 M44.8,94.4H17c-6.4,0-11.6-5.2-11.6-11.6V11.6
				C5.5,5.2,10.6,0,17,0h122.6c6.4,0,11.6,5.2,11.6,11.6v33.6c-2.9,2.7-5.5,5.3-7.5,8c-3.7,4.9-6,10.9-7.4,16.8H69
				c-7.5,0-13.6,5.9-14,13.2C49.8,84.8,45.8,89,44.8,94.4"/>
			<path id="Fill-46" class="st0" d="M23.4,33.9C23.4,28.6,26,24,29.8,21c2.8-2.2,6.4-3.4,10.2-3.4c7,0.1,13,4.6,15.2,10.8l0,0
				c0.5,1.5,0.9,3.1,1,4.7c0,0.4,0,0.7,0,1.1c0,3.7-1.3,7.1-3.4,9.9c-3.1,3.9-7.8,6.4-13.2,6.4c-1.8,0-3.5-0.3-5.1-0.9
				C28,47.4,23.3,41.2,23.4,33.9z M32.8,54.8c2.1,0.7,4.4,1.1,6.8,1.2c7.2,0.1,13.6-3.3,17.6-8.5c2.8-3.6,4.5-8.2,4.6-13.1
				c0-0.5,0-1,0-1.5c-0.1-2.2-0.6-4.3-1.3-6.3c-3-8.3-11-14.3-20.3-14.4c-5.1-0.1-9.7,1.6-13.5,4.4c-5.2,3.9-8.6,10.2-8.7,17.2
				C17.8,43.5,24,51.9,32.8,54.8L32.8,54.8z"/>
			<path id="Fill-47" class="st2" d="M52.8,44.1l4.3,3.4c-4.1,5.2-10.5,8.6-17.6,8.5c-2.4,0-4.6-0.4-6.8-1.2l1.8-5.2
				c1.6,0.5,3.3,0.8,5.1,0.9C45,50.6,49.8,48.1,52.8,44.1"/>
			<path id="Fill-49" class="st3" d="M26.6,16.5c3.7-2.8,8.4-4.5,13.5-4.4c9.4,0.1,17.3,6.1,20.3,14.4l-5.2,1.9l0,0
				C53,22.2,47.1,17.7,40,17.6c-3.8,0-7.4,1.2-10.2,3.4L26.6,16.5"/>
			<path id="Fill-51" class="st0" d="M127.9,81.6H86.1c-5.6,0-10.2-4.6-10.2-10.2V22.3c0-5.6,4.6-10.2,10.2-10.2h41.7
				c5.6,0,10.2,4.6,10.2,10.2v49.1C138,77.1,133.5,81.6,127.9,81.6"/>
			<path id="Fill-52" class="st4" d="M61.5,70.5H20.9c-1.3,0-2.3-1-2.3-2.3v-0.3c0-1.3,1-2.3,2.3-2.3h40.7c1.3,0,2.3,1,2.3,2.3v0.3
				C63.9,69.5,62.8,70.5,61.5,70.5"/>
			<path id="Fill-53" class="st4" d="M61.5,81.6H20.9c-1.3,0-2.3-1-2.3-2.3V79c0-1.3,1-2.3,2.3-2.3h40.7c1.3,0,2.3,1,2.3,2.3v0.3
				C63.9,80.6,62.8,81.6,61.5,81.6"/>
		</g>
		<g id="Group-32" transform="translate(1096.000000, 97.000000)">
			<g id="Group-31">
				<path id="Fill-4" class="st4" d="M27.5,16.3c-9,0-16.3,7.3-16.3,16.3v184.2c0,9,7.3,16.3,16.3,16.3h245.3
					c9,0,16.3-7.3,16.3-16.3V32.6c0-9-7.3-16.3-16.3-16.3H27.5 M272.8,234.2H27.5c-9.6,0-17.4-7.8-17.4-17.4V32.6
					c0-9.6,7.8-17.4,17.4-17.4h245.3c9.6,0,17.4,7.8,17.4,17.4v184.2C290.2,226.4,282.4,234.2,272.8,234.2"/>
				<path id="Fill-30" class="st5" d="M301.7,16.9v184.2c0,9.3-7.6,16.9-16.9,16.9H39.5c-9.3,0-16.9-7.6-16.9-16.9V16.9
					C22.6,7.6,30.2,0,39.5,0h245.3C294.1,0,301.7,7.6,301.7,16.9"/>
				<path id="Fill-31" class="st3" d="M301.7,16.9v4.8h-279v-4.8C22.6,7.6,30.2,0,39.5,0h245.3C294.1,0,301.7,7.6,301.7,16.9"/>
				<path id="Fill-32" class="st4" d="M133.1,84.4H54.3c-3.6,0-6.5-2.9-6.5-6.5V57.2c0-3.6,2.9-6.5,6.5-6.5h78.7
					c3.6,0,6.5,2.9,6.5,6.5v20.6C139.6,81.4,136.7,84.4,133.1,84.4"/>
				<path id="Fill-33" class="st4" d="M54.3,95.9c-3.3,0-6,2.7-6,6v20.6c0,3.3,2.7,6,6,6h78.7c3.3,0,6-2.7,6-6v-20.6
					c0-3.3-2.7-6-6-6H54.3 M133.1,129.6H54.3c-3.9,0-7.1-3.2-7.1-7.1v-20.6c0-3.9,3.2-7.1,7.1-7.1h78.7c3.9,0,7.1,3.2,7.1,7.1v20.6
					C140.2,126.4,137,129.6,133.1,129.6"/>
				<path id="Fill-34" class="st4" d="M233.3,145.5h-71.4c-0.9,0-1.7-0.8-1.7-1.7v-2c0-0.9,0.8-1.7,1.7-1.7h71.4
					c0.9,0,1.7,0.8,1.7,1.7v2C235,144.8,234.2,145.5,233.3,145.5"/>
				<path id="Fill-35" class="st4" d="M233.3,165.3h-71.4c-0.9,0-1.7-0.8-1.7-1.7v-2c0-0.9,0.8-1.7,1.7-1.7h71.4
					c0.9,0,1.7,0.8,1.7,1.7v2C235,164.5,234.2,165.3,233.3,165.3"/>
				<path id="Fill-36" class="st4" d="M169.5,51.2c-4.8,0-8.7,3.9-8.7,8.7v59.8c0,4.8,3.9,8.7,8.7,8.7h97.9c4.8,0,8.7-3.9,8.7-8.7
					V60c0-4.8-3.9-8.7-8.7-8.7H169.5 M267.5,129.6h-97.9c-5.4,0-9.8-4.4-9.8-9.8V60c0-5.4,4.4-9.8,9.8-9.8h97.9
					c5.4,0,9.8,4.4,9.8,9.8v59.8C277.3,125.2,272.9,129.6,267.5,129.6"/>
				<path id="Fill-37" class="st3" d="M263.3,147.3l-6.2-5.4c-0.5-0.4-0.6-1.2-0.1-1.7c0.4-0.5,1.2-0.6,1.7-0.1l4.4,3.8l6.3-7
					c0.5-0.5,1.2-0.5,1.7-0.1c0.5,0.4,0.5,1.2,0.1,1.7L263.3,147.3"/>
				<path id="Fill-38" class="st3" d="M263.3,168.2l-6.2-5.4c-0.5-0.4-0.6-1.2-0.1-1.7s1.2-0.6,1.7-0.1l4.4,3.8l6.3-7
					c0.5-0.5,1.2-0.5,1.7-0.1c0.5,0.5,0.5,1.2,0.1,1.7L263.3,168.2"/>
				<path id="Fill-39" class="st4" d="M233.3,186.2h-71.4c-0.9,0-1.7-0.8-1.7-1.7v-2c0-0.9,0.8-1.7,1.7-1.7h71.4
					c0.9,0,1.7,0.8,1.7,1.7v2C235,185.5,234.2,186.2,233.3,186.2"/>
				<path id="Fill-40" class="st3" d="M263.3,189.2l-6.2-5.4c-0.5-0.4-0.6-1.2-0.1-1.7c0.4-0.5,1.2-0.6,1.7-0.1l4.4,3.8l6.3-7
					c0.5-0.5,1.2-0.5,1.7-0.1c0.5,0.4,0.5,1.2,0.1,1.7L263.3,189.2"/>
				<path id="Fill-50" class="st5" d="M58.1,67.4c0-2.3,1.2-4.4,2.9-5.7c1.3-1,2.8-1.5,4.5-1.5c3.1,0,5.8,2,6.8,4.8l0,0
					c0.2,0.7,0.4,1.4,0.4,2.1h0c0,0.2,0,0.3,0,0.5c0,0.7-0.1,1.4-0.3,2c-0.3,0.9-0.7,1.7-1.2,2.4c-0.2,0.3-0.4,0.5-0.6,0.7
					c-1.3,1.3-3.2,2.1-5.3,2.1c-0.5,0-1.1-0.1-1.6-0.2c-0.2-0.1-0.5-0.1-0.7-0.2C60.1,73.5,58,70.7,58.1,67.4z M75.2,67.6
					c0-0.2,0-0.3,0-0.5l0-0.2c-0.1-1-0.2-1.9-0.6-2.8c-1.3-3.7-4.9-6.4-9.1-6.4c-2.3,0-4.3,0.7-6,2c-2.3,1.8-3.9,4.5-3.9,7.7
					c-0.1,4.3,2.7,8.1,6.6,9.4v0c0.9,0.3,2,0.5,3,0.5c1.2,0,2.3-0.2,3.4-0.6c1.8-0.6,3.3-1.8,4.4-3.2c1.1-1.4,1.8-3.2,2-5.1
					C75.2,68.2,75.2,67.9,75.2,67.6L75.2,67.6z"/>
				<path id="Fill-80" class="st6" d="M11.2,133.4h11.4V99.7H11.2V133.4z M10.1,133.4H6.5c-3.6,0-6.5-2.9-6.5-6.5v-20.6
					c0-3.6,2.9-6.5,6.5-6.5h3.6V133.4L10.1,133.4z"/>
				<path id="Fill-82" class="st7" d="M85.3,133.4H22.6V99.7h25c-0.2,0.7-0.3,1.4-0.3,2.2v20.6c0,3.9,3.2,7.1,7.1,7.1h36.8
					C90.1,131.8,87.9,133.4,85.3,133.4 M91.6,128.5H54.3c-3.3,0-6-2.7-6-6v-20.6c0-0.8,0.1-1.5,0.4-2.2h36.5c3.6,0,6.5,2.9,6.5,6.5
					v20.6C91.8,127.4,91.7,128,91.6,128.5"/>
				<polygon id="Fill-108" class="st0" points="41.4,187.2 49.7,187.2 49.7,156.9 41.4,156.9 				"/>
				<polygon id="Fill-109" class="st0" points="53.2,187.2 61.6,187.2 61.6,153.8 53.2,153.8 				"/>
				<polygon id="Fill-110" class="st0" points="65.3,187.2 73.6,187.2 73.6,160.2 65.3,160.2 				"/>
				<polygon id="Fill-111" class="st0" points="77.3,187.2 85.7,187.2 85.7,147.7 77.3,147.7 				"/>
				<polygon id="Fill-112" class="st0" points="90,187.2 98.3,187.2 98.3,151.6 90,151.6 				"/>
				<polygon id="Fill-113" class="st0" points="102.8,187.2 111.1,187.2 111.1,156.9 102.8,156.9 				"/>
				<polygon id="Fill-114" class="st0" points="114.7,187.2 123,187.2 123,153.8 114.7,153.8 				"/>
				<polygon id="Fill-115" class="st0" points="126.7,187.2 135.1,187.2 135.1,160.2 126.7,160.2 				"/>
				<path id="Fill-119" class="st8" d="M252.8,217.9h-82.1v-14.1c0-4.6,3.7-8.3,8.3-8.3h65.4c4.6,0,8.3,3.7,8.3,8.3V217.9"/>
				<path id="Fill-120" class="st5" d="M242.8,251.9h-29.3c-2.8,0-5.1-2.3-5.1-5.1v-39.7c0-2.8,2.3-5.1,5.1-5.1h29.3
					c2.8,0,5.1,2.3,5.1,5.1v39.7C247.9,249.6,245.6,251.9,242.8,251.9"/>
				<path id="Fill-121" class="st5" d="M197.3,209.2h-15c-1.7,0-3.1-1.4-3.1-3.1v-0.9c0-1.7,1.4-3.1,3.1-3.1h15
					c1.7,0,3.1,1.4,3.1,3.1v0.9C200.4,207.8,199,209.2,197.3,209.2"/>
			</g>
			<path id="Fill-116" class="st5" d="M11.4,115.8c0-2.3,1.2-4.4,2.9-5.7c1.3-1,2.8-1.5,4.5-1.5c3.1,0,5.8,2,6.8,4.8l0,0
				c0.2,0.7,0.4,1.4,0.4,2.1h0c0,0.2,0,0.3,0,0.5c0,0.7-0.1,1.4-0.3,2c-0.3,0.9-0.7,1.7-1.2,2.4c-0.2,0.3-0.4,0.5-0.6,0.7
				c-1.3,1.3-3.2,2.1-5.3,2.1c-0.5,0-1.1-0.1-1.6-0.2c-0.2-0.1-0.5-0.1-0.7-0.2C13.4,121.8,11.3,119,11.4,115.8z M28.5,115.5l0-0.1
				c-0.1-1-0.2-1.9-0.6-2.8c-1.3-3.7-4.9-6.4-9.1-6.4c-2.3,0-4.3,0.7-6,2c-2.3,1.8-3.9,4.5-3.9,7.7c-0.1,4.3,2.7,8.1,6.6,9.4
				c0.9,0.3,2,0.5,3,0.5c1.2,0,2.4-0.2,3.5-0.6c1.7-0.6,3.2-1.8,4.3-3.2c1.1-1.4,1.8-3.2,2-5c0-0.3,0-0.5,0-0.8
				C28.5,115.8,28.5,115.7,28.5,115.5L28.5,115.5z"/>
		</g>
		<path id="Fill-44" class="st9" d="M396.1,319.1c-46,0-83.2-37.3-83.2-83.2s37.3-83.2,83.2-83.2c46,0,83.2,37.3,83.2,83.2
			S442,319.1,396.1,319.1z M504.6,207.5c-2.6-10.2-6.7-19.8-11.9-28.6l12.1-18.2l-33.5-33.5l-18.2,12.1c-8.8-5.2-18.4-9.2-28.6-11.9
			l-4.3-21.4h-47.4l-4.3,21.4c-10.2,2.6-19.8,6.7-28.6,11.9l-18.2-12.1l-33.5,33.5l12.1,18.2c-5.2,8.8-9.2,18.4-11.9,28.6l-21.4,4.3
			v47.4l21.4,4.3c2.6,10.2,6.7,19.8,11.9,28.6l-12.1,18.2l33.5,33.5l18.2-12.1c8.8,5.2,18.4,9.2,28.6,11.9l4.3,21.4h47.4l4.3-21.4
			c10.2-2.6,19.8-6.7,28.6-11.9l18.2,12.1l33.5-33.5l-12.1-18.2c5.2-8.8,9.2-18.4,11.9-28.6l21.4-4.3v-47.4L504.6,207.5L504.6,207.5
			z"/>
		<path id="Fill-24" class="st10" d="M1022.6,227c0,0,6,45.9-27.3,81.1C962,343.4,887,330.8,887,330.8s12.4-41.7,39.6-58.8
			C953.8,254.8,1007.2,248.9,1022.6,227"/>
		<path id="Fill-25" class="st11" d="M983.6,140c0,0,27.4,51.4,3.9,107.6C964,303.7,870.2,322,870.2,322s-3.9-54.5,20.5-86.7
			C915.1,203.1,975.3,172.6,983.6,140"/>
		<path id="Path" class="st12" d="M1442,415.4H0V300.6c307.7-46.2,512.7-56.7,615-31.5c242.5,59.7,687.9,15.5,736,15.5
			c13.6,0,48.3-2.5,91-1.6V415.4z"/>
		<g id="Group-26" transform="translate(426.000000, 106.000000)">
			<path id="Fill-67" class="st5" d="M117.9,78.4c0,6.6-5.3,11.9-11.8,11.9H11.8C5.3,90.3,0,85,0,78.4V11.9C0,5.3,5.3,0,11.8,0h94.3
				c6.5,0,11.8,5.3,11.8,11.9V78.4z"/>
			<path id="Fill-96" class="st3" d="M119,11.6l-0.2,6.4H0l0.2-6.4C0.2,5.2,5.5,0,12.1,0h95C113.7,0,119,5.2,119,11.6"/>
			<path id="Fill-97" class="st0" d="M13,25.2c-2.1,0-3.7,1.7-3.7,3.7v47.3C9.3,78.3,11,80,13,80h23.9c2.1,0,3.7-1.7,3.7-3.7V28.9
				c0-2-1.7-3.7-3.7-3.7H13z M36.9,81.8H13c-3.1,0-5.6-2.5-5.6-5.6V28.9c0-3.1,2.5-5.6,5.6-5.6h23.9c3.1,0,5.6,2.5,5.6,5.6v47.3
				C42.5,79.3,40,81.8,36.9,81.8L36.9,81.8z"/>
			<path id="Fill-98" class="st0" d="M107.6,29.8H50.7c-1,0-1.9-0.9-1.9-2v-1.3c0-1.1,0.8-2,1.9-2h56.8c1,0,1.9,0.9,1.9,2v1.3
				C109.4,28.9,108.6,29.8,107.6,29.8"/>
			<path id="Fill-99" class="st0" d="M107.6,39.3H50.7c-1,0-1.9-0.9-1.9-2V36c0-1.1,0.8-2,1.9-2h56.8c1,0,1.9,0.9,1.9,2v1.3
				C109.4,38.4,108.6,39.3,107.6,39.3"/>
			<path id="Fill-103" class="st5" d="M19.1,9.6c0,2.9-2.4,5.3-5.3,5.3c-2.9,0-5.3-2.4-5.3-5.3s2.4-5.3,5.3-5.3
				C16.7,4.2,19.1,6.6,19.1,9.6"/>
			<polygon id="Fill-146" class="st0" points="51,81.8 58.4,81.8 58.4,55.2 51,55.2 			"/>
			<polygon id="Fill-147" class="st0" points="60.6,80.8 68,80.8 68,52.1 60.6,52.1 			"/>
			<polygon id="Fill-148" class="st0" points="71.2,80.8 78.6,80.8 78.6,57.4 71.2,57.4 			"/>
			<polygon id="Fill-149" class="st0" points="81.8,81.8 89.2,81.8 89.2,46.8 81.8,46.8 			"/>
			<polygon id="Fill-150" class="st0" points="92.4,80.8 99.9,80.8 99.9,49.9 92.4,49.9 			"/>
		</g>
		
			<g id="Group-29" transform="translate(400.500000, 210.000000) scale(-1, 1) translate(-400.500000, -210.000000) translate(359.000000, 182.000000)">
			<path id="Fill-54" class="st13" d="M75.9,55.5H58.7V0h3.7c-0.1,1.5,0,2.9,0.5,3c0.1,0,0.3,0.1,0.5,0.1c0.5,0,1.3-0.1,2.2-0.2
				c0.9-0.1,1.8-0.2,2.7-0.2c0.6,0,1.1,0,1.5,0.1C70.3,3,71.1,3,72,3c2.7,0,6.5-0.5,7.1-0.6c0.4-0.1,0.7-0.6,0.8-1.1
				c1.6,1.2,2.6,3.1,2.6,5.3v42.4C82.5,52.6,79.6,55.5,75.9,55.5"/>
			<path id="Fill-55" class="st13" d="M62.9,4.2C62.4,4,62.3,2,62.4,0h13.8c1.5,0,2.4,0.5,3.7,1.3c0,0.9,0,1.9-0.5,2
				c-0.7,0.2-4.5,0.8-7.3,0.8c-0.9,0-1.7-0.1-2.2-0.2c-0.5-0.1-1-0.2-1.6-0.2c-0.9,0-1.9,0.1-2.7,0.3c-0.9,0.1-1.7,0.3-2.2,0.3
				C63.2,4.2,63,4.2,62.9,4.2z"/>
			<path id="Fill-56" class="st14" d="M58.7,55.5H40.1c0.9-1.2,1.4-2.6,1.4-4.2V9c0-3.8-3.1-7-7-7H1.8C3,0.8,4.7,0,6.6,0h52.2V55.5
				 M39.1,55.5H6.6c-3.6,0-6.6-2.9-6.6-6.6V6.6c0-1.4,0.4-2.7,1.2-3.8h33.3c3.4,0,6.2,2.8,6.2,6.2v42.4C40.7,53,40.1,54.4,39.1,55.5
				"/>
			<path id="Fill-57" class="st15" d="M40.1,55.5h-1c1-1.1,1.6-2.6,1.6-4.2V9c0-3.4-2.8-6.2-6.2-6.2H1.2C1.4,2.5,1.6,2.3,1.8,2h32.7
				c3.8,0,7,3.1,7,7v42.4C41.4,52.9,40.9,54.4,40.1,55.5"/>
			<rect id="Rectangle" x="11" y="55" class="st14" width="49" height="-55"/>
			<path id="Fill-58" class="st5" d="M33.6,30.2H10.8c-1.4,0-2.5-1.1-2.5-2.5V9.1c0-1.4,1.1-2.5,2.5-2.5h22.8c1.4,0,2.5,1.1,2.5,2.5
				v18.6C36,29,34.9,30.2,33.6,30.2"/>
			<path id="Fill-59" class="st5" d="M74.9,12.9H42.1c-0.8,0-1.5-0.7-1.5-1.5V8.1c0-0.8,0.7-1.5,1.5-1.5h32.8c0.8,0,1.5,0.7,1.5,1.5
				v3.4C76.3,12.3,75.7,12.9,74.9,12.9"/>
			<path id="Fill-60" class="st5" d="M74.9,22.7H42.1c-0.8,0-1.5-0.7-1.5-1.5v-3.4c0-0.8,0.7-1.5,1.5-1.5h32.8
				c0.8,0,1.5,0.7,1.5,1.5v3.4C76.3,22.1,75.7,22.7,74.9,22.7"/>
			<path id="Fill-61" class="st5" d="M75,47.9H62.4c-0.7,0-1.3-0.6-1.3-1.3V46c0-0.7,0.6-1.3,1.3-1.3H75c0.7,0,1.3,0.6,1.3,1.3v0.6
				C76.3,47.3,75.8,47.9,75,47.9"/>
		</g>
		<g transform="translate(151.000000, 0.000000)">
			<path id="Fill-5" class="st16" d="M756.5,373.1c0,0,7.9,3.7,11.5,4.9c1.8,0.7,6.1,0.6,10.1,0.5c3.8-0.1,7.2-0.1,7.9,0.4
				c1.4,1.1,1.5,5.4-0.6,6.2c-2.1,0.8-17.6,4.7-23,4.1c-2.7-0.3-6.5,0.5-9.9,1.3c-3.3,0.8-6.2,1.6-7.3,1.4c-2.3-0.5-2.5-13.5-2-16.5
				C743.7,372.4,756.5,373.1,756.5,373.1"/>
			<path id="Fill-6" class="st17" d="M755.1,368l1.9,5.3c0,0-9.8,3.6-13.7,2.4l-1.3-5.4L755.1,368"/>
			<path id="Fill-7" class="st18" d="M735.6,377.8c0,0,7.5,4.6,10.9,6.3c3.4,1.7,16.5,2,17.8,3.3c1.3,1.3,0.9,5.5-1.3,6
				c-2.2,0.5-18,2.3-23.3,1.1c-2.8-0.7-7-0.3-10.6,0.1c-3.1,0.3-5.8,0.7-6.8,0.3c-2.2-0.8-1-13.5-0.2-16.4
				C722.9,375.6,735.6,377.8,735.6,377.8"/>
			<path id="Fill-8" class="st17" d="M733.9,372l1.1,5.7c0,0-9.8,2.3-13.3,0.7l-0.7-5.8L733.9,372"/>
			<path id="Fill-9" class="st19" d="M658.9,276c0,0,34.3,0.3,38.5,0.9c4.6,0.6,22.4,1.2,24.6,4.5c21.8,33.1,36,87.2,36,87.2
				l-17.2,3.4c0,0-16.6-32.3-23.6-49c-6.3-15.1-11.6-18.9-24.8-18.6c-13.1,0.3-55.2-2.6-79.4-5.6L658.9,276"/>
			<path id="Fill-10" class="st20" d="M654.6,196.8c0,0,10.2,21.9,9.3,30.1c-0.8,8.2-9.6,30.8-10.2,35.3c-0.6,4.5,3.8,13.5,3.8,13.5
				L611.8,297c0,0-1.8-13.4,0-28.9c1.8-15.5,3.2-32.1,5.2-40.9c6.9-29.8,25.3-42.2,25.3-42.2L654.6,196.8"/>
			<path id="Fill-11" class="st21" d="M658.1,275c0,0,34.5,0.3,38.8,0.9c4.6,0.6,23,1,24.7,4.5c12.5,25.2,15.4,92.7,15.4,92.7
				l-16.1,1.9c0,0-6.9-34.4-10.4-50.5c-1.9-8.5-9-18.9-18.8-18.3c-13.2,0.8-65,13.5-79.6-9.9L658.1,275"/>
			<path id="Fill-12" class="st17" d="M628.1,217.4c0.1-4.3,2.6-22.6,13-21.4c10.4,1.3,9.2,13.7,8.3,23c-1,9.8-6.1,33.8-4.5,35.1
				c1.6,1.2,14,4.9,16.7,5.5c2.7,0.5,18.7,4.4,20.1,4.8c1.3,0.4-1.3,6.6-1.3,6.6s-44.5-1.3-52-4.8
				C620.9,262.7,628.1,217.4,628.1,217.4"/>
			<path id="Fill-13" class="st17" d="M681.3,264.6c0,0,3.3,0.9,4.9,1c1.6,0.1,9.1-2.9,11.5-2.5c2.3,0.4,17.4,7.9,18.1,8.4
				c0.7,0.5-0.4,1.5-0.4,1.5l-35.4-1.3L681.3,264.6"/>
			<polyline id="Fill-14" class="st22" points="724.8,278 666,275.6 666.2,270 725,272.4 724.8,278 			"/>
			<polyline id="Fill-15" class="st22" points="745,222.8 725.1,278 720,276.2 739.9,221 745,222.8 			"/>
			<path id="Fill-16" class="st17" d="M681.8,161.7c0,0,1.1,9-1.3,9.3c-2,0.3-1.3,9-1.3,10.3c0,1.4-3.8,0.9-4.8,1.4
				c-1,0.5-6.9,9-9.8,8.2c-2.9-0.8-13.9-10.2-16-15.2c-2.1-4.9,1.5-22.3,6.5-28.3C660,141.6,679.8,146,681.8,161.7"/>
			<path id="Fill-17" class="st17" d="M659,184.7c0,0-0.3,0.8-0.7,2c-0.3,0.9-0.7,2.1-1.1,3.3c-1.1,3.4-2.3,7.5-2.4,9.5
				c-0.2,3.7-11.7-15.1-11.7-15.1s4.1-11.3,6.7-24.6C652.3,146.5,659,184.7,659,184.7"/>
			<path id="Fill-18" class="st23" d="M682,163.5c0,0,7.3-6.4,2.1-15.3c-5.1-8.9-23.1-3.8-24.8-4c-1.7-0.2-10.7-3-12.4,14.1
				s-0.6,14.5-0.6,14.5s4.4-7.3,7.5-6.2c3.1,1.2,8.6,1.7,8.6,1.7s0.1-8,4.6-7.4C671.6,161.7,678.4,160.4,682,163.5"/>
			<path id="Fill-19" class="st20" d="M627,218.1l23.5,0.9c0,0,3.7-24.5-9.9-24C627.1,195.5,627,218.1,627,218.1"/>
			<path id="Fill-20" class="st17" d="M660,162.8c0-1.1,0.5-5.7-4.3-4.6s-1.9,11-1.3,11.4C655,169.9,659.9,172.1,660,162.8"/>
			<path id="Fill-21" class="st17" d="M642,185c0,0,20.5,36.7,20,31.5c-0.4-4.1-9.3-23.7-9.3-23.7L642,185"/>
			<path id="Fill-22" class="st24" d="M658,186.6c-0.3,0.9-0.7,2.1-1.2,3.4c-4.1-5.2-7-11.2-7.8-13C650.7,180.1,658,186.6,658,186.6
				"/>
			<polyline id="Fill-23" class="st25" points="658,276 612.8,303 612,297 658,276 			"/>
			<polyline id="Fill-27" class="st26" points="37.4,401.8 9.4,343 26.1,353.2 37.4,401.8 			"/>
			<polyline id="Fill-28" class="st27" points="37.4,403.8 39.4,370.2 27.6,361.3 37.4,403.8 			"/>
			<polygon id="Fill-29" class="st28" points="10.2,362.1 37.4,402.8 15.4,356.8 			"/>
			<path id="Fill-106" class="st29" d="M287.2,32.6c-3.5-0.5-7-1-10.5-1.5l-0.4-0.1l0.2-1.9l0.4,0.1c3.5,0.4,7,0.9,10.5,1.5
				L287.2,32.6z M254.3,29.3l0.1-1.9c3.7,0.2,7.4,0.4,11.1,0.7l-0.2,1.9C261.6,29.7,257.9,29.4,254.3,29.3z M308.8,36.8
				c-3.6-0.8-7.2-1.6-10.8-2.3l0.4-1.9c3.6,0.7,7.2,1.5,10.8,2.3L308.8,36.8z M232.3,29.2l-0.1-1.9c3.7-0.1,7.4-0.2,11.1-0.2l0,1.9
				C239.6,29,235.9,29,232.3,29.2z M330.1,42.4c-3.5-1-7.1-2-10.6-3l0.5-1.9c3.5,0.9,7.1,1.9,10.7,3L330.1,42.4z M210.3,30.9
				l-0.2-1.9c3.6-0.4,7.4-0.8,11-1.1l0.2,1.9C217.6,30.1,214,30.4,210.3,30.9z M351.1,49.2c-3.5-1.2-7-2.4-10.4-3.6l0.6-1.8
				c3.5,1.1,7,2.3,10.5,3.6L351.1,49.2z M188.6,34.5l-0.4-1.9c3.6-0.8,7.3-1.5,10.9-2.1l0.3,1.9C195.8,33,192.2,33.7,188.6,34.5z
				 M371.6,57.3c-3.4-1.4-6.8-2.8-10.2-4.2l0.7-1.8c3.4,1.3,6.9,2.7,10.3,4.2L371.6,57.3z M391.7,66.4c-3.3-1.6-6.7-3.2-10-4.7
				l0.8-1.8c3.3,1.5,6.7,3.1,10,4.7L391.7,66.4z M167.3,40.1l-0.6-1.9c3.5-1.1,7.1-2.1,10.7-3l0.5,1.9C174.4,38,170.8,39,167.3,40.1
				z M411.4,76.5c-3.2-1.8-6.5-3.5-9.7-5.2l0.9-1.7c3.3,1.7,6.6,3.4,9.8,5.2L411.4,76.5z M146.6,47.5l-0.7-1.8
				c3.4-1.4,6.9-2.8,10.3-4l0.7,1.8C153.5,44.8,150,46.1,146.6,47.5z M430.4,87.6c-3.1-1.9-6.3-3.8-9.5-5.7l1-1.7
				c3.2,1.9,6.4,3.8,9.5,5.7L430.4,87.6z M126.7,56.9l-0.9-1.7c3.3-1.7,6.6-3.4,9.9-4.9l0.8,1.8C133.2,53.5,129.9,55.2,126.7,56.9z
				 M448.9,99.7c-2.9-2.1-6-4.1-9.1-6.2l1.1-1.6c3.1,2,6.2,4.1,9.2,6.2L448.9,99.7z M107.6,67.9l-1.1-1.6c2.1-1.4,4.3-2.7,6.5-4
				c1-0.6,2-1.2,3-1.8l1,1.7c-1,0.6-2,1.2-3,1.7C111.9,65.2,109.7,66.5,107.6,67.9z M466.6,112.9c-1.2-0.9-2.3-1.8-3.5-2.7
				c-1.7-1.3-3.4-2.7-5.2-4l1.2-1.6c1.8,1.4,3.6,2.7,5.3,4c1.2,0.9,2.3,1.8,3.5,2.7L466.6,112.9z M484.6,125.8c-3-2-6.1-4.1-9.1-6.3
				l1.1-1.6c3,2.2,6.1,4.3,9.1,6.3L484.6,125.8z M90,81l-1.2-1.5c2.8-2.4,5.8-4.7,8.7-6.9l1.2,1.6C95.7,76.4,92.8,78.6,90,81z
				 M503.5,137.4c-3.2-1.8-6.4-3.7-9.6-5.6l1-1.7c3.2,1.9,6.3,3.8,9.5,5.6L503.5,137.4z M523.3,147.5c-3.3-1.5-6.7-3.1-10-4.8
				l0.9-1.7c3.3,1.7,6.6,3.3,9.9,4.8L523.3,147.5z M74,96.1l-1.4-1.3c2.5-2.7,5.2-5.3,7.8-7.9l1.3,1.4C79.2,90.8,76.5,93.4,74,96.1z
				 M544,155.5c-3.4-1.1-7-2.4-10.5-3.8l0.7-1.8c3.5,1.4,6.9,2.6,10.3,3.7L544,155.5z M565.5,161.1c-3.6-0.7-7.2-1.5-10.8-2.4
				l0.5-1.9c3.6,0.9,7.2,1.8,10.7,2.4L565.5,161.1z M576.5,162.7l0.2-1.9c3.7,0.4,7.4,0.6,10.9,0.7l0,1.9
				C584,163.4,580.3,163.2,576.5,162.7z M59.9,113l-1.6-1.2c2.2-3,4.5-5.9,6.9-8.7l1.5,1.2C64.4,107.1,62.1,110,59.9,113z
				 M47.7,131.3l-1.7-1c1.9-3.2,3.9-6.4,5.9-9.4l1.6,1.1C51.5,125,49.6,128.1,47.7,131.3z M37.3,150.7l-1.8-0.8
				c1.6-3.4,3.3-6.7,5-9.9l1.7,0.9C40.6,144.1,38.9,147.4,37.3,150.7z M28.8,171.1l-1.8-0.7c1.3-3.5,2.6-7,4.1-10.3l1.8,0.8
				C31.5,164.2,30.1,167.6,28.8,171.1z M22.1,192.1l-1.9-0.5c1-3.6,2.1-7.2,3.2-10.6l1.8,0.6C24.1,185,23.1,188.5,22.1,192.1z
				 M17,213.5l-1.9-0.4c0.7-3.6,1.5-7.3,2.4-10.8l1.9,0.4C18.5,206.3,17.7,209.9,17,213.5z M13.5,235.3l-1.9-0.2
				c0.5-3.7,1-7.4,1.6-11l1.9,0.3C14.5,228,13.9,231.6,13.5,235.3z M9.7,257.1c0.2-3.7,0.4-7.4,0.8-11.1l1.9,0.2
				c-0.3,3.7-0.6,7.4-0.8,11L9.7,257.1z M9.4,279.3c-0.1-3.7-0.1-7.4-0.1-11.1l1.9,0c-0.1,3.7,0,7.4,0.1,11L9.4,279.3z M10.8,301.5
				c-0.4-3.6-0.7-7.3-1-11.1l1.9-0.1c0.2,3.7,0.6,7.4,1,11L10.8,301.5z M14.4,323.4c-0.8-3.5-1.5-7.1-2.1-10.9l1.9-0.3
				c0.6,3.7,1.3,7.4,2.1,10.8L14.4,323.4L14.4,323.4z"/>
		</g>
	</g>
</g>
</svg>
