<?xml version="1.0" encoding="UTF-8"?>
<svg width="1442px" height="388px" viewBox="0 0 1442 388" version="1.1" xmlns="http://www.w3.org/2000/svg" xmlns:xlink="http://www.w3.org/1999/xlink">
    <!-- Generator: Sketch 58 (84663) - https://sketch.com -->
    <title>Group</title>
    <desc>Created with Sketch.</desc>
    <g id="Page-1" stroke="none" stroke-width="1" fill="none" fill-rule="evenodd">
        <g id="Group" transform="translate(-0.000000, -27.000000)" fill-rule="nonzero">
            <g id="Group-27" transform="translate(1074.000000, 70.000000)">
                <polygon id="Fill-26" fill="#78C2FF" points="-7.10542736e-15 107.765 82.433 107.765 82.433 106.766 -7.10542736e-15 106.766"></polygon>
                <path d="M54.948,94.366 L45.714,94.366 C46.736,89.553 50.31,85.671 54.948,84.21 L54.948,94.366 M44.79,94.366 L17.039,94.366 C10.649,94.366 5.469,89.186 5.469,82.796 L5.469,11.57 C5.469,5.18 10.649,0 17.039,0 L139.641,0 C146.031,0 151.211,5.18 151.211,11.57 L151.211,45.186 C148.332,47.843 145.754,50.517 143.715,53.216 C140.006,58.124 137.702,64.143 136.28,70.025 L69.009,70.025 C61.521,70.025 55.401,75.877 54.972,83.257 C49.821,84.758 45.846,89.043 44.79,94.366" id="Fill-41" fill="#E4F3FE"></path>
                <path d="M23.367,33.851 C23.434,28.598 25.961,23.95 29.837,20.991 C32.661,18.833 36.198,17.571 40.024,17.619 C47.058,17.709 53.003,22.203 55.272,28.447 L55.276,28.456 C55.814,29.941 56.145,31.525 56.234,33.173 C56.253,33.537 56.259,33.904 56.256,34.275 C56.208,37.992 54.928,41.404 52.815,44.131 C49.763,48.068 44.966,50.575 39.602,50.506 C37.829,50.483 36.128,50.181 34.537,49.642 C27.968,47.421 23.275,41.164 23.367,33.851 Z M32.778,54.842 C34.898,55.562 37.168,55.963 39.53,55.994 C46.684,56.085 53.084,52.742 57.155,47.494 C59.977,43.856 61.681,39.303 61.742,34.344 C61.75,33.852 61.74,33.361 61.715,32.876 C61.597,30.674 61.154,28.557 60.432,26.571 C57.408,18.246 49.478,12.252 40.096,12.131 C35.04,12.065 30.365,13.715 26.618,16.541 C21.385,20.487 17.97,26.723 17.881,33.781 C17.756,43.531 24.013,51.877 32.778,54.842 L32.778,54.842 Z" id="Fill-46" fill="#78C2FF"></path>
                <path d="M52.814,44.132 L57.155,47.493 C53.083,52.742 46.684,56.086 39.53,55.994 C37.168,55.964 34.899,55.561 32.778,54.843 L34.538,49.643 C36.129,50.181 37.83,50.483 39.601,50.506 C44.965,50.575 49.762,48.068 52.814,44.132" id="Fill-47" fill="#1A598C"></path>
                <path d="M26.618,16.541 C30.365,13.715 35.04,12.065 40.096,12.131 C49.478,12.252 57.408,18.246 60.432,26.571 L55.276,28.456 L55.272,28.447 C53.003,22.203 47.058,17.709 40.024,17.619 C36.198,17.571 32.661,18.833 29.837,20.991 L26.618,16.541" id="Fill-49" fill="#4DA8F2"></path>
                <path d="M127.86,81.613 L86.114,81.613 C80.491,81.613 75.932,77.055 75.932,71.432 L75.932,22.311 C75.932,16.687 80.491,12.129 86.114,12.129 L127.86,12.129 C133.483,12.129 138.041,16.687 138.041,22.311 L138.041,71.432 C138.041,77.055 133.483,81.613 127.86,81.613" id="Fill-51" fill="#78C2FF"></path>
                <path d="M61.55,70.525 L20.883,70.525 C19.605,70.525 18.569,69.488 18.569,68.211 L18.569,67.917 C18.569,66.639 19.605,65.603 20.883,65.603 L61.55,65.603 C62.828,65.603 63.865,66.639 63.865,67.917 L63.865,68.211 C63.865,69.488 62.828,70.525 61.55,70.525" id="Fill-52" fill="#B3DCFF"></path>
                <path d="M61.55,81.613 L20.883,81.613 C19.605,81.613 18.569,80.577 18.569,79.3 L18.569,79.006 C18.569,77.728 19.605,76.692 20.883,76.692 L61.55,76.692 C62.828,76.692 63.865,77.728 63.865,79.006 L63.865,79.3 C63.865,80.577 62.828,81.613 61.55,81.613" id="Fill-53" fill="#B3DCFF"></path>
            </g>
            <g id="Group-32" transform="translate(1096.000000, 97.000000)">
                <g id="Group-31">
                    <path d="M27.5448,16.2732 C18.54,16.2732 11.2152,23.5992 11.2152,32.6028 L11.2152,216.804 C11.2152,225.8088 18.54,233.1348 27.5448,233.1348 L272.826,233.1348 C281.8296,233.1348 289.1568,225.8088 289.1568,216.804 L289.1568,32.6028 C289.1568,23.5992 281.8296,16.2732 272.826,16.2732 L27.5448,16.2732 M272.826,234.2208 L27.5448,234.2208 C17.9412,234.2208 10.128,226.4076 10.128,216.804 L10.128,32.6028 C10.128,23.0004 17.9412,15.1872 27.5448,15.1872 L272.826,15.1872 C282.4296,15.1872 290.2416,23.0004 290.2416,32.6028 L290.2416,216.804 C290.2416,226.4076 282.4296,234.2208 272.826,234.2208" id="Fill-4" fill="#B3DCFF"></path>
                    <path d="M301.6764,16.8732 L301.6764,201.0744 C301.6764,210.3936 294.1236,217.9476 284.8044,217.9476 L39.5232,217.9476 C30.204,217.9476 22.65,210.3936 22.65,201.0744 L22.65,16.8732 C22.65,7.554 30.204,2.4158453e-13 39.5232,2.4158453e-13 L284.8044,2.4158453e-13 C294.1236,2.4158453e-13 301.6764,7.554 301.6764,16.8732" id="Fill-30" fill="#E3F2FF"></path>
                    <path d="M301.6764,16.8732 L301.6764,21.6432 L22.65,21.6432 L22.65,16.8732 C22.65,7.554 30.204,2.84217094e-14 39.5232,2.84217094e-14 L284.8044,2.84217094e-14 C294.1236,2.84217094e-14 301.6764,7.554 301.6764,16.8732" id="Fill-31" fill="#4DA8F2"></path>
                    <path d="M133.0908,84.3552 L54.348,84.3552 C50.7492,84.3552 47.8308,81.4368 47.8308,77.838 L47.8308,57.2016 C47.8308,53.6028 50.7492,50.6844 54.348,50.6844 L133.0908,50.6844 C136.6896,50.6844 139.608,53.6028 139.608,57.2016 L139.608,77.838 C139.608,81.4368 136.6896,84.3552 133.0908,84.3552" id="Fill-32" fill="#B3DCFF"></path>
                    <path d="M54.348,95.94 C51.054,95.94 48.3744,98.6196 48.3744,101.9124 L48.3744,122.55 C48.3744,125.844 51.054,128.5236 54.348,128.5236 L133.0908,128.5236 C136.3848,128.5236 139.0644,125.844 139.0644,122.55 L139.0644,101.9124 C139.0644,98.6196 136.3848,95.94 133.0908,95.94 L54.348,95.94 M133.0908,129.6084 L54.348,129.6084 C50.4552,129.6084 47.2884,126.4428 47.2884,122.55 L47.2884,101.9124 C47.2884,98.0208 50.4552,94.854 54.348,94.854 L133.0908,94.854 C136.9836,94.854 140.1504,98.0208 140.1504,101.9124 L140.1504,122.55 C140.1504,126.4428 136.9836,129.6084 133.0908,129.6084" id="Fill-33" fill="#B3DCFF"></path>
                    <path d="M233.3076,145.5396 L161.94,145.5396 C161.0028,145.5396 160.2432,144.78 160.2432,143.8428 L160.2432,141.8052 C160.2432,140.8668 161.0028,140.1072 161.94,140.1072 L233.3076,140.1072 C234.2448,140.1072 235.0044,140.8668 235.0044,141.8052 L235.0044,143.8428 C235.0044,144.78 234.2448,145.5396 233.3076,145.5396" id="Fill-34" fill="#B3DCFF"></path>
                    <path d="M233.3076,165.2688 L161.94,165.2688 C161.0028,165.2688 160.2432,164.5104 160.2432,163.5732 L160.2432,161.5368 C160.2432,160.5996 161.0028,159.8388 161.94,159.8388 L233.3076,159.8388 C234.2448,159.8388 235.0044,160.5996 235.0044,161.5368 L235.0044,163.5732 C235.0044,164.5104 234.2448,165.2688 233.3076,165.2688" id="Fill-35" fill="#B3DCFF"></path>
                    <path d="M169.5216,51.228 C164.7048,51.228 160.7868,55.146 160.7868,59.9616 L160.7868,119.7888 C160.7868,124.6056 164.7048,128.5236 169.5216,128.5236 L267.4524,128.5236 C272.268,128.5236 276.186,124.6056 276.186,119.7888 L276.186,59.9616 C276.186,55.146 272.268,51.228 267.4524,51.228 L169.5216,51.228 M267.4524,129.6084 L169.5216,129.6084 C164.106,129.6084 159.7008,125.2044 159.7008,119.7888 L159.7008,59.9616 C159.7008,54.5472 164.106,50.142 169.5216,50.142 L267.4524,50.142 C272.8668,50.142 277.2732,54.5472 277.2732,59.9616 L277.2732,119.7888 C277.2732,125.2044 272.8668,129.6084 267.4524,129.6084" id="Fill-36" fill="#B3DCFF"></path>
                    <path d="M263.2584,147.252 L257.0556,141.8436 C256.5468,141.4008 256.494,140.6292 256.9368,140.1204 C257.3796,139.6116 258.1524,139.5576 258.6612,140.0028 L263.0472,143.826 L269.3028,136.8492 C269.7528,136.3476 270.5268,136.3044 271.0284,136.7556 C271.53,137.2056 271.5732,137.9772 271.1232,138.48 L263.2584,147.252" id="Fill-37" fill="#4DA8F2"></path>
                    <path d="M263.2584,168.2052 L257.0556,162.798 C256.5468,162.354 256.494,161.5812 256.9368,161.0724 C257.3796,160.5636 258.1524,160.5108 258.6612,160.9548 L263.0472,164.7792 L269.3028,157.8024 C269.7528,157.2996 270.5268,157.2564 271.0284,157.7064 C271.53,158.1576 271.5732,158.9304 271.1232,159.4332 L263.2584,168.2052" id="Fill-38" fill="#4DA8F2"></path>
                    <path d="M233.3076,186.222 L161.94,186.222 C161.0028,186.222 160.2432,185.4624 160.2432,184.5264 L160.2432,182.4888 C160.2432,181.5528 161.0028,180.7932 161.94,180.7932 L233.3076,180.7932 C234.2448,180.7932 235.0044,181.5528 235.0044,182.4888 L235.0044,184.5264 C235.0044,185.4624 234.2448,186.222 233.3076,186.222" id="Fill-39" fill="#B3DCFF"></path>
                    <path d="M263.2584,189.1572 L257.0556,183.75 C256.5468,183.306 256.494,182.5344 256.9368,182.0256 C257.3796,181.5168 258.1524,181.464 258.6612,181.9068 L263.0472,185.7324 L269.3028,178.7544 C269.7528,178.2528 270.5268,178.2096 271.0284,178.6608 C271.53,179.1108 271.5732,179.8836 271.1232,180.3864 L263.2584,189.1572" id="Fill-40" fill="#4DA8F2"></path>
                    <path d="M58.08,67.4256 C58.11,65.0832 59.2368,63.0108 60.9648,61.6908 C62.2236,60.7296 63.8016,60.1656 65.5068,60.1872 C68.6436,60.228 71.2944,62.232 72.306,65.016 L72.3084,65.0196 C72.5484,65.682 72.696,66.3876 72.7356,67.1232 L72.7344,67.1232 C72.744,67.2852 72.7476,67.4496 72.7452,67.614 C72.7356,68.3244 72.6204,69.0072 72.4236,69.6552 C72.1608,70.518 71.7492,71.3148 71.2104,72.0096 C71.0136,72.264 70.7988,72.5028 70.5708,72.7296 C69.2232,74.0628 67.3644,74.8788 65.3184,74.8524 C64.7772,74.8452 64.2528,74.7756 63.7464,74.658 C63.5136,74.604 63.2832,74.5428 63.06,74.4672 C60.1308,73.4772 58.038,70.686 58.08,67.4256 Z M75.192,67.6464 C75.1944,67.482 75.1884,67.32 75.1824,67.158 L75.1788,66.9912 C75.1272,66.0084 74.9292,65.0652 74.6076,64.1796 C73.2588,60.4668 69.7224,57.7944 65.5392,57.7404 C63.2844,57.7104 61.2,58.446 59.5296,59.706 C57.1956,61.4664 55.6728,64.2468 55.6332,67.3944 C55.578,71.742 58.368,75.4632 62.2764,76.7856 L62.2764,76.7868 C63.222,77.106 64.2336,77.286 65.2872,77.2992 C66.4836,77.3148 67.632,77.1144 68.6976,76.7352 C70.4712,76.1028 72.012,74.9724 73.146,73.5096 C74.2548,72.0792 74.9772,70.332 75.1512,68.4252 C75.1752,68.1672 75.1884,67.908 75.192,67.6464 L75.192,67.6464 Z" id="Fill-50" fill="#E3F2FF"></path>
                    <path d="M11.2152,133.3944 L22.65,133.3944 L22.65,99.7236 L11.2152,99.7236 L11.2152,133.3944 Z M10.128,133.3944 L6.5172,133.3944 C2.9184,133.3944 0,130.476 0,126.8772 L0,106.242 C0,102.6432 2.9184,99.7236 6.5172,99.7236 L10.128,99.7236 L10.128,133.3944 L10.128,133.3944 Z" id="Fill-80" fill="#71B8F0"></path>
                    <path d="M85.26,133.3944 L22.65,133.3944 L22.65,99.7236 L47.6352,99.7236 C47.4096,100.4136 47.2884,101.1492 47.2884,101.9124 L47.2884,122.55 C47.2884,126.4428 50.4552,129.6084 54.348,129.6084 L91.1784,129.6084 C90.1452,131.8428 87.8832,133.3944 85.26,133.3944 M91.5672,128.5236 L54.348,128.5236 C51.054,128.5236 48.3744,125.844 48.3744,122.55 L48.3744,101.9124 C48.3744,101.1408 48.522,100.4016 48.7896,99.7236 L85.26,99.7236 C88.8588,99.7236 91.776,102.6432 91.776,106.242 L91.776,126.8772 C91.776,127.446 91.704,127.998 91.5672,128.5236" id="Fill-82" fill="#68B1F5"></path>
                    <polygon id="Fill-108" fill="#78C2FF" points="41.3592 187.2492 49.7112 187.2492 49.7112 156.9084 41.3592 156.9084"></polygon>
                    <polygon id="Fill-109" fill="#78C2FF" points="53.244 187.2492 61.5972 187.2492 61.5972 153.8484 53.244 153.8484"></polygon>
                    <polygon id="Fill-110" fill="#78C2FF" points="65.2896 187.2492 73.6416 187.2492 73.6416 160.2048 65.2896 160.2048"></polygon>
                    <polygon id="Fill-111" fill="#78C2FF" points="77.334 187.2492 85.686 187.2492 85.686 147.6696 77.334 147.6696"></polygon>
                    <polygon id="Fill-112" fill="#78C2FF" points="89.9724 187.2492 98.3244 187.2492 98.3244 151.6116 89.9724 151.6116"></polygon>
                    <polygon id="Fill-113" fill="#78C2FF" points="102.78 187.2492 111.132 187.2492 111.132 156.9084 102.78 156.9084"></polygon>
                    <polygon id="Fill-114" fill="#78C2FF" points="114.666 187.2492 123.018 187.2492 123.018 153.8484 114.666 153.8484"></polygon>
                    <polygon id="Fill-115" fill="#78C2FF" points="126.7104 187.2492 135.0624 187.2492 135.0624 160.2048 126.7104 160.2048"></polygon>
                    <path d="M252.762,217.9476 L170.6952,217.9476 L170.6952,203.8404 C170.6952,199.2348 174.4296,195.5004 179.0352,195.5004 L244.422,195.5004 C249.0264,195.5004 252.762,199.2348 252.762,203.8404 L252.762,217.9476" id="Fill-119" fill="#74BBF5"></path>
                    <path d="M242.7624,251.9136 L213.474,251.9136 C210.6564,251.9136 208.374,249.6312 208.374,246.8148 L208.374,207.1608 C208.374,204.3444 210.6564,202.0608 213.474,202.0608 L242.7624,202.0608 C245.5788,202.0608 247.8624,204.3444 247.8624,207.1608 L247.8624,246.8148 C247.8624,249.6312 245.5788,251.9136 242.7624,251.9136" id="Fill-120" fill="#E3F2FF"></path>
                    <path d="M197.268,209.1684 L182.2704,209.1684 C180.5436,209.1684 179.1444,207.768 179.1444,206.0424 L179.1444,205.1868 C179.1444,203.46 180.5436,202.0608 182.2704,202.0608 L197.268,202.0608 C198.9936,202.0608 200.3928,203.46 200.3928,205.1868 L200.3928,206.0424 C200.3928,207.768 198.9936,209.1684 197.268,209.1684" id="Fill-121" fill="#E3F2FF"></path>
                </g>
                <path d="M11.3904,115.7868 C11.4204,113.4444 12.5472,111.372 14.2752,110.0532 C15.534,109.0896 17.1108,108.5268 18.8172,108.5484 C21.954,108.588 24.6048,110.5932 25.6164,113.3772 L25.6188,113.3808 C25.8588,114.0432 26.0052,114.75 26.046,115.4832 L26.0448,115.4832 C26.0532,115.6464 26.0568,115.8096 26.0544,115.9752 C26.046,116.6868 25.9296,117.3696 25.7328,118.0188 C25.47,118.8804 25.0584,119.676 24.5208,120.3696 C24.324,120.6252 24.108,120.864 23.88,121.0896 C22.5324,122.4228 20.6748,123.2388 18.6288,123.2124 C18.0864,123.2052 17.5608,123.1368 17.0532,123.018 C16.8216,122.964 16.5936,122.904 16.3704,122.8284 C13.4412,121.8372 11.3484,119.0484 11.3904,115.7868 Z M28.4928,115.494 L28.4892,115.3524 C28.4376,114.3696 28.2396,113.4264 27.918,112.5408 C26.5692,108.828 23.0328,106.1556 18.8496,106.1016 C16.5948,106.0716 14.5104,106.806 12.84,108.0672 C10.506,109.8276 8.9832,112.6068 8.9436,115.7556 C8.8872,120.1032 11.6784,123.8244 15.5856,125.148 C16.5324,125.4672 17.544,125.6472 18.5976,125.6604 C19.8348,125.676 21.0204,125.4588 22.116,125.0544 C23.844,124.4136 25.3452,123.3036 26.4564,121.8696 C27.558,120.4512 28.2768,118.7184 28.458,116.8272 C28.4832,116.556 28.4988,116.2824 28.5024,116.0064 C28.5048,115.8348 28.4988,115.6632 28.4928,115.494 L28.4928,115.494 Z" id="Fill-116" fill="#E3F2FF"></path>
            </g>
            <path d="M396.07541,319.144262 C350.115876,319.144262 312.855738,281.884124 312.855738,235.92459 C312.855738,189.965056 350.115876,152.704918 396.07541,152.704918 C442.038442,152.704918 479.295082,189.965056 479.295082,235.92459 C479.295082,281.884124 442.038442,319.144262 396.07541,319.144262 Z M504.621535,207.486598 C501.992005,197.314192 497.962153,187.70401 492.751982,178.869068 L504.834551,160.692832 L471.307168,127.165449 L453.130932,139.248018 C444.29599,134.041339 434.6893,130.007995 424.513402,127.378465 L420.211169,106 L372.788831,106 L368.486598,127.378465 C358.314192,130.007995 348.700518,134.041339 339.869068,139.248018 L321.696325,127.165449 L288.165449,160.692832 L300.248018,178.869068 C295.041339,187.70401 291.007995,197.314192 288.378465,207.486598 L267,211.792323 L267,259.211169 L288.378465,263.513402 C291.007995,273.6893 295.041339,283.299482 300.248018,292.130932 L288.165449,310.307168 L321.696325,343.838043 L339.869068,331.751982 C348.700518,336.962153 358.314192,340.995497 368.486598,343.621535 L372.788831,365 L420.211169,365 L424.513402,343.621535 C434.6893,340.995497 444.29599,336.962153 453.130932,331.751982 L471.307168,343.838043 L504.834551,310.307168 L492.751982,292.130932 C497.962153,283.299482 501.992005,273.6893 504.621535,263.513402 L526,259.211169 L526,211.792323 L504.621535,207.486598 L504.621535,207.486598 Z" id="Fill-44" fill="#73C0FF"></path>
            <path d="M1022.58371,227 C1022.58371,227 1028.55296,272.899706 995.28399,308.145273 C962.01287,343.388694 887,330.822603 887,330.822603 C887,330.822603 899.40563,289.167386 926.60418,272.004887 C953.80056,254.842388 1007.22896,248.932721 1022.58371,227" id="Fill-24" fill="#869135"></path>
            <path d="M983.61561,140 C983.61561,140 1010.96673,191.402028 987.47138,247.564257 C963.9739,303.724343 870.22439,322 870.22439,322 C870.22439,322 866.35788,267.490232 890.72485,235.296183 C915.09397,203.099992 975.28146,172.590553 983.61561,140" id="Fill-25" fill="#48753A"></path>
            <path d="M1442,415 L0,415 L0,300.5 C307.680019,254.431034 512.680019,243.949208 615,269.054523 C857.5,328.554523 1302.92627,284.554523 1350.98742,284.554523 C1364.61544,284.554523 1399.2954,282.030362 1442,283 L1442,415 Z" id="Path" fill="#1A366B"></path>
            <g id="Group-26" transform="translate(426.000000, 106.000000)">
                <path d="M117.9375,78.4002504 C117.9375,84.9791381 112.649532,90.3125 106.122881,90.3125 L11.8146191,90.3125 C5.2896507,90.3125 0,84.9791381 0,78.4002504 L0,11.9122496 C0,5.33166501 5.2896507,0 11.8146191,0 L106.122881,0 C112.649532,0 117.9375,5.33166501 117.9375,11.9122496 L117.9375,78.4002504 Z" id="Fill-67" fill="#E3F2FF"></path>
                <path d="M119,11.614798 L118.793182,18.0625 L0,18.0625 L0.205122726,11.614798 C0.205122726,5.19853211 5.53322792,0 12.1056313,0 L107.099491,0 C113.67359,0 119,5.19853211 119,11.614798" id="Fill-96" fill="#4DA8F2"></path>
                <path d="M13.0317872,25.2199517 C10.9694864,25.2199517 9.29323208,26.8881517 9.29323208,28.9367889 L9.29323208,76.2507111 C9.29323208,78.3010316 10.9694864,79.9675483 13.0317872,79.9675483 L36.9040196,79.9675483 C38.9663204,79.9675483 40.6425747,78.3010316 40.6425747,76.2507111 L40.6425747,28.9367889 C40.6425747,26.8881517 38.9663204,25.2199517 36.9040196,25.2199517 L13.0317872,25.2199517 Z M36.9040196,81.8125 L13.0317872,81.8125 C9.94680196,81.8125 7.4375,79.3177751 7.4375,76.2507111 L7.4375,28.9367889 C7.4375,25.8697249 9.94680196,23.375 13.0317872,23.375 L36.9040196,23.375 C39.9890049,23.375 42.5,25.8697249 42.5,28.9367889 L42.5,76.2507111 C42.5,79.3177751 39.9890049,81.8125 36.9040196,81.8125 L36.9040196,81.8125 Z" id="Fill-97" fill="#78C2FF"></path>
                <path d="M107.579298,29.75 L50.7315099,29.75 C49.7059447,29.75 48.875,28.8576163 48.875,27.7562222 L48.875,26.4330953 C48.875,25.3317012 49.7059447,24.4375 50.7315099,24.4375 L107.579298,24.4375 C108.606555,24.4375 109.4375,25.3317012 109.4375,26.4330953 L109.4375,27.7562222 C109.4375,28.8576163 108.606555,29.75 107.579298,29.75" id="Fill-98" fill="#78C2FF"></path>
                <path d="M107.579298,39.3125 L50.7315099,39.3125 C49.7059447,39.3125 48.875,38.4201163 48.875,37.3187222 L48.875,35.9955953 C48.875,34.8942012 49.7059447,34 50.7315099,34 L107.579298,34 C108.606555,34 109.4375,34.8942012 109.4375,35.9955953 L109.4375,37.3187222 C109.4375,38.4201163 108.606555,39.3125 107.579298,39.3125" id="Fill-99" fill="#78C2FF"></path>
                <path d="M19.125,9.5625 C19.125,12.4970238 16.7456698,14.875 13.8116278,14.875 C10.8793302,14.875 8.5,12.4970238 8.5,9.5625 C8.5,6.62797619 10.8793302,4.25 13.8116278,4.25 C16.7456698,4.25 19.125,6.62797619 19.125,9.5625" id="Fill-103" fill="#E3F2FF"></path>
                <polygon id="Fill-146" fill="#78C2FF" points="51 81.8125 58.4375 81.8125 58.4375 55.25 51 55.25"></polygon>
                <polygon id="Fill-147" fill="#78C2FF" points="60.5625 80.75 68 80.75 68 52.0625 60.5625 52.0625"></polygon>
                <polygon id="Fill-148" fill="#78C2FF" points="71.1875 80.75 78.625 80.75 78.625 57.375 71.1875 57.375"></polygon>
                <polygon id="Fill-149" fill="#78C2FF" points="81.8125 81.8125 89.25 81.8125 89.25 46.75 81.8125 46.75"></polygon>
                <polygon id="Fill-150" fill="#78C2FF" points="92.4375 80.75 99.875 80.75 99.875 49.9375 92.4375 49.9375"></polygon>
            </g>
            <g id="Group-29" transform="translate(400.500000, 210.000000) scale(-1, 1) translate(-400.500000, -210.000000) translate(359.000000, 182.000000)">
                <path d="M75.939,55.51945 L58.7333,55.51945 L58.7333,0 L62.39255,0 C62.3339,1.4824 62.4274,2.87895 62.87705,3.03365 C63.0003,3.07615 63.18475,3.09315 63.41595,3.09315 C63.9489,3.09315 64.7326,3.0005 65.59875,2.907 C66.46575,2.81435 67.4152,2.72085 68.28135,2.72085 C68.84065,2.72085 69.36595,2.75995 69.81135,2.8628 C70.329,2.98265 71.0957,3.03025 71.97375,3.03025 C74.69035,3.0294 78.4601,2.57805 79.11035,2.43695 C79.5566,2.3409 79.815,1.8445 79.88725,1.3175 C81.48015,2.51685 82.51035,4.4234 82.51035,6.57135 L82.51035,48.94725 C82.51035,52.57675 79.56765,55.51945 75.939,55.51945" id="Fill-54" fill="#73BAF4"></path>
                <path d="M62.8867508,4.16824677 C62.4283807,3.95568838 62.3330675,2.0368233 62.3928549,0 L76.2020099,0 C77.7122915,0 78.625,0.4675 79.9,1.3175 C79.9,2.1675 79.8897657,3.21640561 79.4348616,3.34837868 C78.7720014,3.54225062 74.929145,4.16240725 72.1598622,4.16357516 C71.2647843,4.16357516 70.4832157,4.09817257 69.955527,3.93349821 C69.5014894,3.79218192 68.9660023,3.73845837 68.3958558,3.73845837 C67.5129087,3.73845837 66.5450461,3.86692773 65.6612324,3.99422918 C64.7782853,4.12269854 63.979387,4.25 63.4361016,4.25 C63.200418,4.25 63.0123909,4.22664193 62.8867508,4.16824677 Z" id="Fill-55" fill="#73BAF4"></path>
                <path d="M58.7333,55.51945 L40.052,55.51945 C40.9275,54.3558 41.4477,52.90995 41.4477,51.3451 L41.4477,8.9675 C41.4477,5.1323 38.3265,2.01195 34.4913,2.01195 L1.83855,2.01195 C3.03365,0.77095 4.7124,0 6.5705,0 L58.7333,0 L58.7333,55.51945 M39.05325,55.51945 L6.5705,55.51945 C2.94185,55.51945 0,52.57675 0,48.94725 L0,6.57135 C0,5.1595 0.44455,3.8522 1.2019,2.7812 L34.4913,2.7812 C37.90235,2.7812 40.6776,5.55645 40.6776,8.9675 L40.6776,51.3451 C40.6776,52.95245 40.06135,54.41785 39.05325,55.51945" id="Fill-56" fill="#6EB8F5"></path>
                <path d="M40.052,55.51945 L39.05325,55.51945 C40.06135,54.41785 40.6776,52.95245 40.6776,51.3451 L40.6776,8.9675 C40.6776,5.55645 37.90235,2.7812 34.4913,2.7812 L1.2019,2.7812 C1.39485,2.50835 1.60735,2.25165 1.83855,2.01195 L34.4913,2.01195 C38.3265,2.01195 41.4477,5.1323 41.4477,8.9675 L41.4477,51.3451 C41.4477,52.90995 40.9275,54.3558 40.052,55.51945" id="Fill-57" fill="#63B3F5"></path>
                <rect id="Rectangle" fill="#6EB8F5" x="11" y="0" width="49" height="55"></rect>
                <path d="M33.558,30.1563 L10.795,30.1563 C9.42565,30.1563 8.31555,29.0462 8.31555,27.6777 L8.31555,9.11285 C8.31555,7.7435 9.42565,6.63425 10.795,6.63425 L33.558,6.63425 C34.9282,6.63425 36.03745,7.7435 36.03745,9.11285 L36.03745,27.6777 C36.03745,29.0462 34.9282,30.1563 33.558,30.1563" id="Fill-58" fill="#E3F2FF"></path>
                <path d="M74.89775,12.9081 L42.13025,12.9081 C41.32785,12.9081 40.6776,12.25785 40.6776,11.45545 L40.6776,8.08605 C40.6776,7.2845 41.32785,6.63425 42.13025,6.63425 L74.89775,6.63425 C75.6993,6.63425 76.34955,7.2845 76.34955,8.08605 L76.34955,11.45545 C76.34955,12.25785 75.6993,12.9081 74.89775,12.9081" id="Fill-59" fill="#E3F2FF"></path>
                <path d="M74.89775,22.72305 L42.13025,22.72305 C41.32785,22.72305 40.6776,22.0728 40.6776,21.2704 L40.6776,17.901 C40.6776,17.0986 41.32785,16.44835 42.13025,16.44835 L74.89775,16.44835 C75.6993,16.44835 76.34955,17.0986 76.34955,17.901 L76.34955,21.2704 C76.34955,22.0728 75.6993,22.72305 74.89775,22.72305" id="Fill-60" fill="#E3F2FF"></path>
                <path d="M75.0295,47.9213 L62.3917,47.9213 C61.66325,47.9213 61.07165,47.33055 61.07165,46.6021 L61.07165,46.0037 C61.07165,45.2744 61.66325,44.68365 62.3917,44.68365 L75.0295,44.68365 C75.75965,44.68365 76.34955,45.2744 76.34955,46.0037 L76.34955,46.6021 C76.34955,47.33055 75.75965,47.9213 75.0295,47.9213" id="Fill-61" fill="#E3F2FF"></path>
            </g>
            <g id="18774" transform="translate(151.000000, 0.000000)">
                <path d="M756.523221,373.05473 C756.523221,373.05473 764.457672,376.71375 768.001584,377.984183 C769.816085,378.636802 774.110899,378.578067 778.058979,378.519331 C781.815612,378.464946 785.259547,378.410561 785.961522,378.965287 C787.403763,380.103021 787.463324,384.408135 785.37867,385.160822 C783.289761,385.915686 767.790992,389.827052 762.38578,389.267975 C759.660839,388.987348 755.889316,389.796597 752.530469,390.605845 C749.229057,391.399865 746.325431,392.196061 745.200143,391.956767 C742.932549,391.473829 742.732592,378.436666 743.213339,375.430265 C743.691959,372.42604 756.523221,373.05473 756.523221,373.05473" id="Fill-5" fill="#484E7D"></path>
                <path d="M755.122261,368 L757,373.346788 C757,373.346788 747.151183,376.910571 743.290535,375.77755 L742,370.328368 L755.122261,368" id="Fill-6" fill="#EEA886"></path>
                <path d="M735.577993,377.839816 C735.577993,377.839816 743.08048,382.425987 746.470145,384.120132 C749.861943,385.814277 762.938498,386.077383 764.25042,387.37366 C765.562342,388.669938 765.157032,392.879632 762.996094,393.348089 C760.83729,393.816545 744.981167,395.656147 739.658817,394.419764 C736.813119,393.758791 732.6683,394.145963 729.086646,394.530996 C725.970032,394.86683 723.282192,395.202664 722.256119,394.849717 C720.046117,394.086069 721.262045,381.332921 722.064131,378.460147 C722.868349,375.587373 735.577993,377.839816 735.577993,377.839816" id="Fill-7" fill="#5B639E"></path>
                <path d="M733.890526,372 L735,377.730788 C735,377.730788 725.229474,380.070401 721.663158,378.396625 L721,372.642877 L733.890526,372" id="Fill-8" fill="#EEA886"></path>
                <path d="M658.876807,276 C658.876807,276 693.213222,276.302082 697.424715,276.897677 C701.987346,277.54469 719.854614,278.121002 722.012817,281.396773 C743.787546,314.46513 758,368.610681 758,368.610681 L740.790042,372 C740.790042,372 724.147468,339.726484 717.176129,322.959852 C710.917768,307.907162 705.560799,304.037939 692.416742,304.370015 C679.274825,304.702091 637.236965,301.803388 613,298.797563 L658.876807,276" id="Fill-9" fill="#292C47"></path>
                <path d="M654.614002,196.829854 C654.614002,196.829854 664.77673,218.779377 663.952437,226.931689 C663.130279,235.084001 654.391913,257.68288 653.774761,262.224087 C653.155473,266.765293 657.578042,275.742695 657.578042,275.742695 L611.819073,297 C611.819073,297 609.976158,283.560686 611.819073,268.083293 C613.661989,252.603758 615.022287,235.969097 617.057395,227.221006 C623.99769,197.372056 642.360644,185 642.360644,185 L654.614002,196.829854" id="Fill-10" fill="#FF7E55"></path>
                <path d="M658.140463,275 C658.140463,275 692.674752,275.30253 696.908098,275.899007 C701.498889,276.546978 719.872819,276.85809 721.634201,280.404768 C734.181358,305.654194 737,373.056086 737,373.056086 L720.856867,375 C720.856867,375 713.985754,340.597442 710.43715,324.501148 C708.553031,315.959513 701.408451,305.600554 691.619645,306.173429 C678.420044,306.943699 626.627224,319.695003 612,296.282211 L658.140463,275" id="Fill-11" fill="#323657"></path>
                <path d="M628.084831,217.418776 C628.184389,213.165311 630.677671,194.806556 641.129108,196.06136 C651.576217,197.31831 650.368534,209.741947 649.401089,219.111153 C648.388193,228.917933 643.254458,252.956555 644.888509,254.1942 C646.522561,255.4297 658.917546,259.121184 661.583972,259.648846 C664.248234,260.176507 680.318212,264.084633 681.638439,264.449277 C682.930531,264.805341 680.344184,271 680.344184,271 C680.344184,271 635.835214,269.706586 628.389998,266.210293 C620.944783,262.714 628.084831,217.418776 628.084831,217.418776" id="Fill-12" fill="#EEA886"></path>
                <path d="M681.292992,264.551313 C681.292992,264.551313 684.598986,265.402371 686.190361,265.530582 C687.781735,265.661004 695.323467,262.601616 697.669447,263.043724 C700.013265,263.485832 715.101053,270.930934 715.777819,271.452621 C716.452424,271.974309 715.375651,273 715.375651,273 L680,271.69357 L681.292992,264.551313" id="Fill-13" fill="#EEA886"></path>
                <polyline id="Fill-14" fill="#807066" points="724.781794 278 666 275.551657 666.218206 270 725 272.448343 724.781794 278"></polyline>
                <polyline id="Fill-15" fill="#807066" points="745 222.8153 725.081811 278 720 276.186853 739.918189 221 745 222.8153"></polyline>
                <path d="M681.754622,161.717422 C681.754622,161.717422 682.847212,170.675338 680.421363,171.050182 C678.415086,171.361132 679.122181,180.005968 679.122181,181.373296 C679.122181,182.740624 675.363074,182.26355 674.336508,182.740624 C673.312071,183.219828 667.478532,191.764564 664.54792,190.944593 C661.619436,190.124622 650.646676,180.734357 648.595673,175.784715 C646.54254,170.835072 650.065239,153.479376 655.055375,147.53086 C660.04551,141.582344 679.771772,146.044264 681.754622,161.717422" id="Fill-16" fill="#EEA886"></path>
                <path d="M659,184.706302 C659,184.706302 658.702952,185.500148 658.266996,186.734063 C657.944303,187.642241 657.546814,188.78771 657.132229,190.034568 C656.014559,193.410574 654.787899,197.507083 654.696006,199.508958 C654.522906,203.247373 643,184.412923 643,184.412923 C643,184.412923 647.145853,173.068247 649.729531,159.801511 C652.311073,146.532619 659,184.706302 659,184.706302" id="Fill-17" fill="#EEA886"></path>
                <path d="M682.015318,163.519274 C682.015318,163.519274 689.306076,157.100224 684.163719,148.2457 C679.023519,139.391176 661.089979,144.471675 659.375141,144.266403 C657.66246,144.058992 648.715103,141.245045 646.980852,158.336137 C645.2466,175.42723 646.340214,172.863459 646.340214,172.863459 C646.340214,172.863459 650.734082,165.527097 653.870403,166.711692 C657.006723,167.894149 662.492048,168.460787 662.492048,168.460787 C662.492048,168.460787 662.595585,160.482948 667.112404,161.098766 C671.63138,161.716723 678.443278,160.361067 682.015318,163.519274" id="Fill-18" fill="#D88A51"></path>
                <path d="M627,218.149036 L650.549847,219 C650.549847,219 654.207412,194.537461 640.671004,195.006664 C627.132459,195.478 627,218.149036 627,218.149036" id="Fill-19" fill="#FF7E55"></path>
                <path d="M659.98171,162.793307 C659.995411,161.695627 660.461255,157.115876 655.697773,158.15126 C650.934292,159.186645 653.802429,169.194648 654.416703,169.536196 C655.028694,169.877745 659.872099,172.053771 659.98171,162.793307" id="Fill-20" fill="#EEA886"></path>
                <path d="M642,185 C642,185 662.523521,221.696595 661.989767,216.495013 C661.571008,212.429063 652.683774,192.78842 652.683774,192.78842 L642,185" id="Fill-21" fill="#EEA886"></path>
                <path d="M658,186.625382 C657.672609,187.553953 657.269333,188.725144 656.848711,190 C652.714045,184.766033 649.847748,178.843909 649,177 C650.688991,180.127587 658,186.625382 658,186.625382" id="Fill-22" fill="#A77860"></path>
                <polyline id="Fill-23" fill="#D6C5BF" points="658 276 612.768527 303 612 297.047862 658 276"></polyline>
                <polyline id="Fill-27" fill="#D6D6D6" transform="translate(23.424297, 372.384994) rotate(7.000000) translate(-23.424297, -372.384994) " points="40.9242966 399.884994 5.92429657 344.884994 23.7001879 352.993066 40.9242966 399.884994"></polyline>
                <polyline id="Fill-28" fill="#E8E8E8" transform="translate(32.496673, 382.551511) rotate(7.000000) translate(-32.496673, -382.551511) " points="39.9966727 403.051511 37.8403423 369.443499 24.9966727 362.051511 39.9966727 403.051511"></polyline>
                <polygon id="Fill-29" fill="#C2C2C2" transform="translate(24.181900, 379.523075) rotate(7.000000) translate(-24.181900, -379.523075) " points="8.18189974 363.904343 40.1818997 401.023075 12.6480244 358.023075"></polygon>
                <path d="M267.43091,35.4062506 C263.901305,35.2859507 260.343788,35.2236525 256.857122,35.2236525 L256.412701,35.2236525 L256.410554,33.2816675 L256.857122,33.2795193 C260.365258,33.2816675 263.946391,33.3439657 267.497466,33.4642657 L267.43091,35.4062506 Z M234.408487,36.0807897 L234.2582,34.1409529 C237.905888,33.859537 241.630867,33.6447156 245.327936,33.5007853 L245.40308,35.4449185 C241.729628,35.5867006 238.030412,35.8015219 234.408487,36.0807897 Z M289.420095,36.9185929 C285.755231,36.5426556 282.060309,36.2268682 278.436237,35.9776754 L278.571496,34.0378387 C282.214891,34.2870314 285.931282,34.6071152 289.617616,34.9830526 L289.420095,36.9185929 Z M212.541679,38.6522012 L212.23681,36.7316984 C215.854441,36.1559771 219.55151,35.6447023 223.222815,35.2150596 L223.448246,37.1463036 C219.802704,37.573798 216.133546,38.0807764 212.541679,38.6522012 Z M311.271875,39.857349 C307.639215,39.2515528 303.970057,38.7016101 300.367455,38.2161139 L300.627237,36.2891664 C304.249162,36.7768108 307.937643,37.3310499 311.589625,37.9389943 L311.271875,39.857349 Z M190.971151,43.0324085 L190.503114,41.1441288 C194.06063,40.2612131 197.701877,39.4405955 201.323802,38.7059065 L201.710255,40.6113719 C198.116241,41.3417645 194.502904,42.1559374 190.971151,43.0324085 Z M332.913252,44.1086634 C329.323532,43.2944905 325.695166,42.5275783 322.122621,41.8251125 L322.498339,39.9174989 C326.08806,40.6242612 329.735748,41.3954698 333.342644,42.2117909 L332.913252,44.1086634 Z M169.862221,49.277265 L169.228867,47.4405425 C172.702651,46.2396912 176.258021,45.1032862 179.796214,44.0571063 L180.347983,45.9196074 C176.8377,46.9593427 173.310242,48.089303 169.862221,49.277265 Z M354.288406,49.5737185 C350.748066,48.5662064 347.164786,47.5973621 343.637327,46.6951124 L344.118247,44.8111292 C347.662881,45.7176753 351.263336,46.690816 354.818706,47.7047728 L354.288406,49.5737185 Z M375.34581,56.1665856 C371.867731,54.9786236 368.340272,53.8228847 364.860047,52.7337405 L365.439727,50.877684 C368.937128,51.9711247 372.479615,53.13116 375.972722,54.3255667 L375.34581,56.1665856 Z M149.401673,57.3975119 L148.60515,55.6252358 C151.958704,54.1128935 155.395991,52.658553 158.822542,51.2987339 L159.539627,53.1053814 C156.138839,54.4544595 152.729464,55.8980589 149.401673,57.3975119 Z M396.046817,63.8206702 C392.64603,62.4651475 389.180833,61.1332551 385.743547,59.8615128 L386.417693,58.0398278 C389.870008,59.3158666 393.350233,60.6520553 396.76605,62.0140227 L396.046817,63.8206702 Z M129.765558,67.3437403 L128.81016,65.6487999 C132.019868,63.8357077 135.311161,62.0741726 138.593866,60.4114554 L139.469826,62.1472119 C136.215032,63.7948916 132.949503,65.5435374 129.765558,67.3437403 Z M416.335609,72.5058973 C413.02714,70.9871103 409.630646,69.4833609 406.244887,68.035465 L407.011353,66.2460032 C410.409993,67.7024919 413.821516,69.212686 417.145013,70.7379176 L416.335609,72.5058973 Z M111.09987,79.0149841 L109.998478,77.414565 C113.040724,75.3179087 116.160259,73.268513 119.273354,71.3222316 L120.301749,72.9720596 C117.214418,74.9033035 114.118499,76.9355134 111.09987,79.0149841 Z M436.134892,82.2458971 C432.959536,80.5681424 429.651067,78.883943 426.303953,77.2384115 L427.162738,75.4940622 C430.522734,77.1460383 433.848378,78.8388306 437.043057,80.5251781 L436.134892,82.2458971 Z M93.5570432,92.2995362 L92.3053643,90.8129724 C94.2397771,89.1824784 96.2385988,87.5648737 98.2503022,86.0074189 C99.162761,85.2985085 100.079514,84.5960427 100.998414,83.9043179 L102.168508,85.455328 C101.256049,86.1449046 100.347884,86.8387775 99.4397191,87.5433915 C97.4494853,89.0858088 95.4721333,90.6862278 93.5570432,92.2995362 Z M455.315851,93.1803037 C454.046997,92.4327254 452.771701,91.6701096 451.489965,90.8946045 C449.682223,89.8011639 447.771427,88.6776482 445.804809,87.5541326 L446.770942,85.8656368 C448.748294,86.9977453 450.674119,88.1298538 452.494743,89.2297391 C453.770039,90.003096 455.04104,90.7614153 456.301307,91.5046972 L455.315851,93.1803037 Z M474.769474,103.811812 C471.523268,102.174873 468.22124,100.441265 464.953564,98.6539516 L465.887492,96.9482701 C469.135846,98.7248426 472.416404,100.449858 475.643288,102.076056 L474.769474,103.811812 Z M77.6373197,107.450886 L76.2160309,106.125438 C78.7322704,103.425134 81.3622989,100.767794 84.0309727,98.2286053 L85.370677,99.6356852 C82.7299137,102.149095 80.1277957,104.778508 77.6373197,107.450886 Z M494.927301,113.053426 C491.571599,111.667829 488.149342,110.179117 484.759289,108.621662 L485.568693,106.855831 C488.93513,108.400396 492.333771,109.880515 495.668003,111.255372 L494.927301,113.053426 Z M515.789331,120.604397 C512.324134,119.528142 508.785941,118.335883 505.273511,117.059845 L505.934775,115.233863 C509.419294,116.497013 512.929577,117.67853 516.366864,118.74834 L515.789331,120.604397 Z M63.6326864,124.393845 L62.0654041,123.244551 C64.2510115,120.258534 66.5461139,117.309037 68.8884495,114.475544 L70.387029,115.715063 C68.06831,118.518482 65.7968241,121.437904 63.6326864,124.393845 Z M537.30189,126.090934 C533.74008,125.388468 530.096686,124.561406 526.470467,123.633378 L526.951386,121.749395 C530.543254,122.670978 534.152297,123.487299 537.675462,124.18332 L537.30189,126.090934 Z M559.325427,129.014653 C555.714237,128.780497 551.991404,128.408856 548.262131,127.910471 L548.519767,125.983523 C552.206101,126.477612 555.883847,126.842809 559.449951,127.074816 L559.325427,129.014653 Z M570.448837,129.30681 L570.420927,127.362676 C574.184551,127.311119 577.864444,127.096298 581.363992,126.724657 L581.5701,128.658049 C578.010437,129.036135 574.270429,129.255252 570.448837,129.30681 Z M51.6547853,142.85774 L49.9694201,141.891044 C51.8136604,138.670872 53.758808,135.476479 55.7554827,132.398089 L57.3850269,133.457158 C55.4076749,136.505473 53.479703,139.667643 51.6547853,142.85774 Z M41.7508494,162.516042 L39.9731649,161.731944 C41.4695974,158.33347 43.0647902,154.952182 44.7093631,151.680453 L46.4462554,152.556924 C44.8145642,155.79643 43.2344002,159.149791 41.7508494,162.516042 Z M33.8629109,183.083037 L32.0186705,182.472945 C33.180177,178.947726 34.4340028,175.426805 35.7457966,172.006849 L37.5599795,172.705018 C36.2610675,176.094899 35.0158295,179.585746 33.8629109,183.083037 Z M27.9007974,204.300942 L26.0093238,203.856262 C26.8573738,200.240818 27.7891553,196.621079 28.7789048,193.098009 L30.6489088,193.624321 C29.6677471,197.121612 28.7424065,200.713425 27.9007974,204.300942 Z M23.7550137,225.957082 L21.8334827,225.667073 C22.3831049,222.002221 23.0121648,218.318035 23.6991927,214.719777 L25.6078419,215.084973 C24.925108,218.657452 24.300342,222.31586 23.7550137,225.957082 Z M21.3182118,247.868859 L19.381652,247.727077 C19.6521692,244.038595 19.9935362,240.320037 20.3971651,236.674519 L22.3294309,236.88934 C21.925802,240.511228 21.586582,244.204007 21.3182118,247.868859 Z M20.513101,269.905233 L18.5701004,269.905233 C18.5722473,266.21675 18.6388032,262.485304 18.7740618,258.80971 L20.7170624,258.878453 C20.5839508,262.532564 20.513101,266.242529 20.513101,269.905233 Z M19.3580354,292.079092 C19.0939591,288.41424 18.8964386,284.68709 18.763327,280.998607 L20.7063276,280.929864 C20.8372923,284.594717 21.0348128,288.300385 21.2967422,291.939458 L19.3580354,292.079092 Z M21.7647799,314.139096 C21.2301863,310.525801 20.7557077,306.822281 20.3542258,303.131651 L22.2864917,302.921126 C22.6858266,306.588126 23.1560113,310.268016 23.6863109,313.855532 L21.7647799,314.139096 Z M25.9127105,335.949908 C25.0796893,332.424689 24.304636,328.770578 23.6068733,325.086392 L25.5155225,324.725492 C26.2089913,328.379604 26.9776037,332.005788 27.8020371,335.503079 L25.9127105,335.949908 Z M32.1367534,357.279519 C30.9387486,353.926158 29.7922709,350.366568 28.7295247,346.69742 L30.5952347,346.153922 C31.6493931,349.786551 32.782989,353.309621 33.9659651,356.626462 L32.1367534,357.279519 L32.1367534,357.279519 Z" id="Fill-106" fill="#C2BEBC" transform="translate(300.070100, 195.279519) rotate(7.000000) translate(-300.070100, -195.279519) "></path>
            </g>
        </g>
    </g>
</svg>