<svg xmlns="http://www.w3.org/2000/svg" xmlns:xlink="http://www.w3.org/1999/xlink" viewBox="0 0 421.26 379.4"><defs><style>.cls-1{isolation:isolate;}.cls-2{fill:url(#linear-gradient);}.cls-3{fill:url(#linear-gradient-2);}.cls-4{fill:url(#linear-gradient-3);}.cls-5{fill:url(#linear-gradient-4);}.cls-6{fill:#e8e8e8;}.cls-16,.cls-6,.cls-8{mix-blend-mode:hard-light;}.cls-7{fill:#b8d6ff;}.cls-8{fill:#757575;}.cls-13,.cls-9{fill:#fff;}.cls-10{fill:url(#linear-gradient-5);}.cls-11{fill:url(#linear-gradient-6);}.cls-12{fill:url(#linear-gradient-7);}.cls-13{opacity:0.73;}.cls-14{fill:#d4dbe1;}.cls-15{fill:#c5ccd1;}.cls-16{fill:#f5f5f5;}.cls-17{fill:#4aafff;}.cls-18{fill:#1487e3;}.cls-19{fill:#1a598c;}.cls-20{fill:#2273b5;}.cls-21{fill:#3788cc;}.cls-22{fill:url(#linear-gradient-8);}.cls-23{fill:url(#linear-gradient-9);}.cls-24{fill:url(#linear-gradient-10);}.cls-25{fill:url(#linear-gradient-11);}.cls-26{fill:url(#linear-gradient-12);}.cls-27{fill:url(#linear-gradient-13);}.cls-28{fill:url(#linear-gradient-14);}.cls-29{fill:#e2d2ca;}.cls-30{fill:#706865;}.cls-31{fill:#ccbdb7;}.cls-32{fill:#998e89;}.cls-33{fill:#b59074;}.cls-34{fill:#ffb555;}.cls-35{fill:#424773;}.cls-36{fill:#292c47;}.cls-37{fill:#eea886;}.cls-38{fill:#3a3f47;}.cls-39{fill:#323657;}.cls-40{fill:#918783;}.cls-41{fill:#5e5854;}.cls-42{fill:#bfb2ac;}.cls-43{fill:#b8aba5;}.cls-44{fill:#f5f7ff;}.cls-45{fill:#918681;}.cls-46{fill:#dfe1e8;}.cls-47{fill:#e0e0e0;}.cls-48{fill:#b8b8b8;}.cls-49{fill:#d9d9d9;}.cls-50{fill:url(#linear-gradient-15);}.cls-51{fill:url(#linear-gradient-16);}.cls-52{fill:#7ac4ff;}.cls-53{fill:#5c544d;}.cls-54{fill:#3c4145;}.cls-55{fill:#33373b;}.cls-56{fill:#fccca2;}.cls-57{fill:#495054;}.cls-58{fill:#d6d6d6;}.cls-59{fill:#c98462;}.cls-60{fill:#de9d7d;}.cls-61{fill:#d64c4a;}.cls-62{fill:#3d416b;}.cls-63{fill:#cfbeb6;}.cls-64{fill:#23263d;}.cls-65{fill:#ff5a58;}.cls-66{fill:#807066;}.cls-67{fill:#191b2b;}.cls-68{fill:#a77860;}.cls-69{fill:#b03e3d;}.cls-70{fill:#282b45;}.cls-71{fill:#eddad3;}</style><linearGradient id="linear-gradient" x1="373.15" y1="127.69" x2="467.93" y2="127.69" gradientUnits="userSpaceOnUse"><stop offset="0.01" stop-color="#3c6127"/><stop offset="1" stop-color="#639c38"/></linearGradient><linearGradient id="linear-gradient-2" x1="-13426.75" y1="-5622.55" x2="-13426.75" y2="-5689.19" gradientTransform="matrix(-0.71, -0.7, -0.7, 0.71, -13146.23, -5239.95)" xlink:href="#linear-gradient"/><linearGradient id="linear-gradient-3" x1="382.22" y1="99.08" x2="427.08" y2="99.08" xlink:href="#linear-gradient"/><linearGradient id="linear-gradient-4" x1="-13421.72" y1="-3970.88" x2="-13421.72" y2="-4036.32" gradientTransform="matrix(-0.84, -0.54, -0.54, 0.84, -13067.72, -3736.53)" xlink:href="#linear-gradient"/><linearGradient id="linear-gradient-5" x1="219.3" y1="257.94" x2="73" y2="257.94" gradientUnits="userSpaceOnUse"><stop offset="0" stop-color="#ffc05c"/><stop offset="1" stop-color="#ff3857"/></linearGradient><linearGradient id="linear-gradient-6" x1="219.3" y1="265.93" x2="73" y2="265.93" xlink:href="#linear-gradient-5"/><linearGradient id="linear-gradient-7" x1="219.3" y1="273.93" x2="73" y2="273.93" xlink:href="#linear-gradient-5"/><linearGradient id="linear-gradient-8" x1="54.37" y1="347.67" x2="107.52" y2="347.67" gradientUnits="userSpaceOnUse"><stop offset="0" stop-color="#40d5e6"/><stop offset="1" stop-color="#57f"/></linearGradient><linearGradient id="linear-gradient-9" x1="93.36" y1="377.33" x2="141.42" y2="377.33" xlink:href="#linear-gradient-8"/><linearGradient id="linear-gradient-10" x1="97.47" y1="384.31" x2="133.54" y2="384.31" xlink:href="#linear-gradient-8"/><linearGradient id="linear-gradient-11" x1="84.44" y1="355.28" x2="126.45" y2="355.28" xlink:href="#linear-gradient-8"/><linearGradient id="linear-gradient-12" x1="20.43" y1="355.25" x2="59.2" y2="355.25" gradientUnits="userSpaceOnUse"><stop offset="0" stop-color="#ff9340"/><stop offset="1" stop-color="#ffce45"/></linearGradient><linearGradient id="linear-gradient-13" x1="74.8" y1="415.55" x2="113.57" y2="415.55" gradientUnits="userSpaceOnUse"><stop offset="0" stop-color="#c97332"/><stop offset="1" stop-color="#ffce45"/></linearGradient><linearGradient id="linear-gradient-14" x1="383.11" y1="314.45" x2="351.45" y2="314.45" gradientTransform="translate(-271.77 -270.6)" xlink:href="#linear-gradient-8"/><linearGradient id="linear-gradient-15" x1="165.13" y1="166.15" x2="325.98" y2="166.15" xlink:href="#linear-gradient-5"/><linearGradient id="linear-gradient-16" x1="165.13" y1="161.8" x2="326.06" y2="161.8" xlink:href="#linear-gradient-8"/></defs><title>sass-1</title><g class="cls-1"><g id="Слой_1" data-name="Слой 1"><path class="cls-2" d="M381.62,130.63c-6.85,13.05-11,25.54-6.77,31.43a7,7,0,0,0,.83,1c3.31,3.25,10.15,3.68,21.95-.26,31.4-10.49,34-31.37,41.31-51.5,7.22-19.89,28.45-15.32,29-15.2C419,76,393.25,108.49,381.62,130.63Z" transform="translate(-54.37 -60.3)"/><path class="cls-3" d="M374.85,162.06a7,7,0,0,0,.83,1c6-3.17,17.41-9.95,23.08-17.95a123.9,123.9,0,0,0,7.41-12.6c4.61-8.57,9.39-17.43,17.24-24l-.78-.94c-8,6.72-12.87,15.69-17.53,24.37a121.59,121.59,0,0,1-7.34,12.46C392.24,152.17,380.66,159,374.85,162.06Z" transform="translate(-54.37 -60.3)"/><path class="cls-4" d="M386.67,136.38c.32.91.52,1.43.54,1.49q.18-.74.36-1.44c5.23-20.79,10.84-22.69,28.27-40.19C433.68,78.34,425,60.3,425,60.3,367.72,73.55,383.35,126.78,386.67,136.38Z" transform="translate(-54.37 -60.3)"/><path class="cls-5" d="M386.67,136.38c.32.91.52,1.43.54,1.49q.18-.74.36-1.44c-.84-18.26,11.26-39,14.92-42.64s6.26-9.09,7.2-11.1L410,82l-.77-.49c-.07.12-.18.34-.41.83-.92,2-3.36,7.19-7,10.84C397.21,97.76,386,118.64,386.67,136.38Z" transform="translate(-54.37 -60.3)"/><rect class="cls-6" x="91.48" y="43.85" width="273.3" height="246.41" rx="11"/><rect class="cls-7" x="210.19" y="163.1" width="59.24" height="11.47" rx="2.56"/><rect class="cls-8" x="210.19" y="179.52" width="59.24" height="46.83" rx="2.56"/><rect class="cls-7" x="308.08" y="81.25" width="33.4" height="3.35"/><rect class="cls-7" x="308.08" y="91.63" width="38.39" height="3.35"/><rect class="cls-7" x="308.02" y="101.95" width="19.86" height="3.35"/><rect class="cls-7" x="308.02" y="112.26" width="30.6" height="3.35"/><rect class="cls-9" x="105.79" y="256.22" width="146.15" height="3.43"/><rect class="cls-9" x="105.79" y="264.22" width="157.92" height="3.43"/><rect class="cls-9" x="105.79" y="272.22" width="102.47" height="3.43"/><rect class="cls-10" x="105.79" y="256.22" width="76.1" height="3.43"/><rect class="cls-11" x="105.79" y="264.22" width="82.23" height="3.43"/><rect class="cls-12" x="105.79" y="272.22" width="53.36" height="3.43"/><rect class="cls-13" x="289.84" y="136.31" width="101.33" height="145.86" rx="9.9"/><rect class="cls-14" x="302.08" y="225.28" width="72.91" height="5.18" rx="1.41"/><rect class="cls-14" x="302.08" y="236.71" width="51.89" height="5.18" rx="1.41"/><rect class="cls-14" x="302.08" y="248.14" width="61.64" height="5.18" rx="1.41"/><rect class="cls-9" x="327.05" y="262.18" width="26.92" height="26.92" rx="5.08"/><rect class="cls-15" x="339.23" y="270.29" width="2.55" height="10.71"/><rect class="cls-15" x="393.6" y="330.59" width="2.55" height="10.71" transform="translate(676.45 -119.23) rotate(90)"/><rect class="cls-16" x="43.1" y="159.1" width="171.75" height="157.27" rx="10.46"/><polygon class="cls-17" points="194.38 214.08 194.23 213.17 172.11 216.8 164.94 232.09 141.08 233.71 133.35 245.1 115.11 244.65 115.09 245.57 133.83 246.03 141.59 234.59 165.54 232.97 172.74 217.63 194.38 214.08"/><path class="cls-18" d="M221.71,243.51h23.85a2.72,2.72,0,0,0,2.72-2.73h0a2.72,2.72,0,0,0-2.72-2.72H221.71a2.72,2.72,0,0,0-2.72,2.72h0A2.72,2.72,0,0,0,221.71,243.51Z" transform="translate(-54.37 -60.3)"/><path class="cls-17" d="M221.71,253h23.85a2.72,2.72,0,0,0,2.72-2.73h0a2.72,2.72,0,0,0-2.72-2.72H221.71a2.72,2.72,0,0,0-2.72,2.72h0A2.72,2.72,0,0,0,221.71,253Z" transform="translate(-54.37 -60.3)"/><path class="cls-17" d="M221.71,262.53h23.85a2.72,2.72,0,0,0,2.72-2.73h0a2.72,2.72,0,0,0-2.72-2.73H221.71A2.72,2.72,0,0,0,219,259.8h0A2.72,2.72,0,0,0,221.71,262.53Z" transform="translate(-54.37 -60.3)"/><rect class="cls-17" x="57.57" y="176.9" width="91.25" height="13.09" rx="2.82"/><rect class="cls-18" x="57.57" y="195.68" width="91.25" height="13.09" rx="2.82"/><path class="cls-17" d="M245.76,311.71a23,23,0,1,0-37,27.13c.3.41.62.82.95,1.21a22.66,22.66,0,0,0,5,4.47,23,23,0,0,0,31.06-32.81Zm-8.36,27.46a17.21,17.21,0,0,1-19.57.53,16.8,16.8,0,0,1-3.77-3.35c-.25-.29-.49-.59-.72-.91a17.21,17.21,0,1,1,24.06,3.73Z" transform="translate(-54.37 -60.3)"/><path class="cls-19" d="M210,325l-5.75-.08a23,23,0,0,1,15.78-21.49l1.79,5.46A17.25,17.25,0,0,0,210,325Z" transform="translate(-54.37 -60.3)"/><path class="cls-20" d="M214.06,336.35l-4.4,3.7c-.33-.39-.65-.8-.95-1.21A22.86,22.86,0,0,1,204.27,325L210,325a17.22,17.22,0,0,0,3.32,10.41C213.57,335.76,213.81,336.06,214.06,336.35Z" transform="translate(-54.37 -60.3)"/><path class="cls-21" d="M214.7,344.52a22.66,22.66,0,0,1-5-4.47l4.4-3.7a16.8,16.8,0,0,0,3.77,3.35Z" transform="translate(-54.37 -60.3)"/><path class="cls-22" d="M59,277.44c4.59-2.19,9.15,12.39,9.15,12.39,7.79,10.3,18.67-3.4,17.61,12-1.86,26.93,31,8.47,15.83,36.58s13.38,15.89,4,38.56,2.78,49.69-11.39,38.59c0,0-12.48-27.37-25.34-35.84s7.7-18.51,3.68-30c-5.85-16.7-19.94-16-9.78-34S43.44,284.89,59,277.44Z" transform="translate(-54.37 -60.3)"/><path class="cls-9" d="M98.67,405.25c-6.14-4.32-13.33-34.43-13.76-52.36-.22-9.19-2.94-13-5.33-16.39s-4.27-6-3.12-12.42c2.2-12.23-3.58-17.51-3.64-17.56l.67-.76c.26.22,6.28,5.67,4,18.5-1.07,6,.7,8.48,3,11.65s5.29,7.46,5.51,16.95c.46,19.25,7.82,47.67,13.34,51.56Z" transform="translate(-54.37 -60.3)"/><path class="cls-23" d="M101,407.48a13.27,13.27,0,0,1-2.6-.28,5.65,5.65,0,0,1-4.61-3.72c-1.66-4.73,2.18-12.43,5.29-16.13a23.68,23.68,0,0,0,4.71-15.27c-.09-1.48-.25-2.85-.38-4.05-.39-3.5-.68-6,.82-7.71,1.33-1.49,3.88-2.13,8.54-2.15,8.18,0,11.41-3.42,14-6.14a14.55,14.55,0,0,1,3.41-2.94h0c4.07-2.23,8.39-2.55,10.26-.78.89.84,1.64,2.49.17,5.57a21.38,21.38,0,0,1-4.5,6c-1.88,1.92-3.13,3.2-2.48,5.73.15.59.33,1.2.5,1.8,1.26,4.31,2.69,9.2-4.68,12.51-1.57.71-3,1.26-4.26,1.76-5.15,2-8.25,3.24-11.76,10.65-.68,1.43-1.28,2.79-1.86,4.1C108.78,402.74,106.69,407.48,101,407.48ZM130.65,350a14,14,0,0,0-3.17,2.75c-2.73,2.86-6.13,6.41-14.73,6.45-4.29,0-6.69.58-7.79,1.82s-.93,3.68-.57,6.91c.13,1.22.29,2.61.38,4.11a24.2,24.2,0,0,1-4.94,16c-3.08,3.67-6.57,11-5.11,15.15a4.69,4.69,0,0,0,3.85,3.05c7,1.41,8.87-2.94,12.05-10.14.58-1.33,1.18-2.69,1.87-4.14,3.68-7.77,7.11-9.12,12.31-11.16,1.25-.49,2.67-1,4.21-1.73,6.57-3,5.38-7,4.13-11.31-.18-.61-.36-1.22-.51-1.83-.8-3.09.76-4.68,2.74-6.69a20.39,20.39,0,0,0,4.3-5.76c.67-1.39,1.22-3.29.05-4.39-1.53-1.46-5.44-1.06-9.07.93Z" transform="translate(-54.37 -60.3)"/><path class="cls-24" d="M98.48,413.34l-1,0c0-1,1.33-23.42,10.35-30,9.9-7.21,13-15,14.5-20.17,1.75-6.13,10.67-7.77,11.05-7.83l.17,1c-.08,0-8.66,1.59-10.24,7.11-1.53,5.35-4.73,13.31-14.88,20.71C99.78,390.41,98.49,413.12,98.48,413.34Z" transform="translate(-54.37 -60.3)"/><path class="cls-25" d="M119.11,300.11c-6.41-2.2-5.08,10.16-7.79,19.31s-30.14,4-18.63,26.88S78.13,354,85.92,373.94s.68,41.35,9.14,35.92,4.76-30.6,13.56-33.59,10.25-6.48,1.53-14.61,22.84-16.19,15-32.61S126.52,302.65,119.11,300.11Z" transform="translate(-54.37 -60.3)"/><path class="cls-9" d="M99,408.9c-.81-3.42-7.69-33.52-1.27-37.16,5.67-3.21,5.53-15.68,4.64-27.46-.78-10.43,12.61-15.3,13.18-15.51l.34,1c-.13,0-13.23,4.82-12.5,14.47.9,12.1,1,24.93-5.16,28.42-4.87,2.76-.38,27,1.76,36.05Z" transform="translate(-54.37 -60.3)"/><polygon class="cls-26" points="59.2 337.88 50.04 372.61 29.58 372.61 20.43 337.88 59.2 337.88"/><path class="cls-27" d="M113.57,398.18S93.41,402,93.41,432.91H84L74.8,398.18Z" transform="translate(-54.37 -60.3)"/><polygon class="cls-28" points="111.34 28.02 111.34 30.97 82.62 30.97 82.62 59.68 79.68 59.68 79.68 28.02 111.34 28.02"/><rect class="cls-29" x="87.61" y="292.76" width="28.84" height="1.71"/><rect class="cls-30" x="145.84" y="359.23" width="2.53" height="77.86" transform="translate(239.84 736.02) rotate(180)"/><rect class="cls-31" x="111.94" y="292.28" width="20.05" height="2.45"/><rect class="cls-32" x="118.16" y="271.41" width="7.59" height="23.06"/><rect class="cls-33" x="77.26" y="294.5" width="111.08" height="4.43"/><path class="cls-34" d="M110.31,328s-1.21,17,2.12,19.07c2.08,1.28,10.4,5.59,10.15,6.4s-4.69,7.18-4.69,7.18-16-10.51-16.49-13.83.79-24.94,3-25.94c1.65-.75,2.51-.13,4.59,1.41C111.87,324.46,110.31,328,110.31,328Z" transform="translate(-54.37 -60.3)"/><path class="cls-35" d="M130,426.46s-.49,3.45-.56,4-5.52-.31-5.52-.31l-.44-4.1S129.28,426,130,426.46Z" transform="translate(-54.37 -60.3)"/><path class="cls-36" d="M129.46,430a14.81,14.81,0,0,0,3.41,3c1.67.91,4.3,1.26,5.29,2.2.72.68,2.6,3.59-4.35,3.53s-10.3.41-11-.7,1.08-8.25,1.08-8.25S125.49,430.35,129.46,430Z" transform="translate(-54.37 -60.3)"/><path class="cls-35" d="M165,426.49s-.49,3.45-.56,4-5.52-.31-5.52-.31l-.44-4.1S164.28,426,165,426.49Z" transform="translate(-54.37 -60.3)"/><path class="cls-36" d="M164.46,430a14.56,14.56,0,0,0,3.41,3c1.67.91,7.83,1.65,8.82,2.59.71.68,1.9,3.4-7.88,3.14-6.95-.18-10.3.42-11.05-.7s1.08-8.24,1.08-8.24S160.39,430.42,164.46,430Z" transform="translate(-54.37 -60.3)"/><path class="cls-36" d="M112.34,366.92s19.86,3.36,24.35,4.06,28.81,6.76,31.85,8.6c2.42,1.47-1.27,36.72-2.13,50.17h-9.58l-.7-40.34c-11.49.28-19.7-2.69-28.07-1.42s-15.35,3.08-20.67-4.06C107.39,383.93,107.2,368.47,112.34,366.92Z" transform="translate(-54.37 -60.3)"/><path class="cls-36" d="M131.92,429.79l-9.34-.58-.91-39.8a57.59,57.59,0,0,1-10.65-.68l-7.53-17.52c6.6,1.32,27.77,6.66,30.59,8.37C136.5,381.05,132.78,416.33,131.92,429.79Z" transform="translate(-54.37 -60.3)"/><path class="cls-37" d="M121.49,292.47s7.28-2,10,3.64,1.52,16.37-2.15,17.37-8.94-.15-10.47-3.67-2.73-8.51-2.37-11.75S119.55,293.24,121.49,292.47Z" transform="translate(-54.37 -60.3)"/><path class="cls-37" d="M127.49,312.36s-.08,4.3.4,5.21-10.14.69-10.14.69,1.67-5.16.72-9.56S127.49,312.36,127.49,312.36Z" transform="translate(-54.37 -60.3)"/><path class="cls-38" d="M117.9,307.07s.57,1.15,3.31,1,6.37-3.5,7.54-3.8,1.23-1,1.23-1l.62,1.1,1.2.18s-.82-3.32.95-4.49-.79-10.59-9.75-8.31c0,0-6.84,1.25-6.93,5.06S116.57,305.05,117.9,307.07Z" transform="translate(-54.37 -60.3)"/><path class="cls-29" d="M128.44,317.46s0-1.75-.82-1.92-8.34-1.2-9.32-.82l-.41,2.31S119.76,318.19,128.44,317.46Z" transform="translate(-54.37 -60.3)"/><path class="cls-37" d="M130.63,302.5c-.21-1.43-1.84-3.08-2.77-.85s.63,5.49,1.68,5.32S130.9,304.45,130.63,302.5Z" transform="translate(-54.37 -60.3)"/><path class="cls-39" d="M160.06,338.15h0C160.1,338.17,160.11,338.17,160.06,338.15Z" transform="translate(-54.37 -60.3)"/><path class="cls-38" d="M119.36,293.5s-8.87-.42-1.55,13.44Z" transform="translate(-54.37 -60.3)"/><polygon class="cls-40" points="45.22 374.21 45.88 376.06 73.78 367.42 72.44 363.66 45.22 374.21"/><rect class="cls-40" x="71.56" y="335.76" width="3.17" height="30.33"/><rect class="cls-41" x="63.8" y="334.15" width="18.7" height="1.79"/><polygon class="cls-40" points="101.33 374.21 100.67 376.06 72.76 367.42 73.99 363.42 101.33 374.21"/><polygon class="cls-40" points="81.67 375.87 81.67 378.03 72.76 367.42 73.99 363.42 81.67 375.87"/><circle class="cls-42" cx="101.33" cy="376.79" r="2.61"/><path class="cls-42" d="M136.26,437.09a2.61,2.61,0,1,1-2.61-2.61A2.61,2.61,0,0,1,136.26,437.09Z" transform="translate(-54.37 -60.3)"/><path class="cls-42" d="M102.19,437.09a2.61,2.61,0,1,1-2.6-2.61A2.6,2.6,0,0,1,102.19,437.09Z" transform="translate(-54.37 -60.3)"/><rect class="cls-29" x="51.12" y="327.38" width="44.31" height="6.77" rx="3.34"/><rect class="cls-30" x="171.6" y="298.93" width="2.53" height="77.86"/><rect class="cls-43" x="89.18" y="236.28" width="65.55" height="46.24" rx="3.33"/><rect class="cls-44" x="91.75" y="238.78" width="60.42" height="36.5"/><path class="cls-45" d="M203.85,339a2.52,2.52,0,1,1-2.43-1.88A2.21,2.21,0,0,1,203.85,339Z" transform="translate(-54.37 -60.3)"/><path class="cls-32" d="M189.9,354.86V354s-1.16-5.12-9.34-5.12-8,5.94-8,5.94Z" transform="translate(-54.37 -60.3)"/><path class="cls-37" d="M172.44,349.68a8.15,8.15,0,0,0,2.43-.53c.65-.39,4.55-3,5.47-2.6s7,2.29,6.79,3.18-.77.81-1.2.65a30.81,30.81,0,0,0-5.25-.93S185,351,185,352.19s-.9,1.44-1.32,1.88-.9,1.52-2,1.6-6.59-1.81-7.71-1.9a26.45,26.45,0,0,1-3.35-.12A31.41,31.41,0,0,1,172.44,349.68Z" transform="translate(-54.37 -60.3)"/><path class="cls-34" d="M140.08,319.89c-5.67-1-11.64-2.43-11.64-2.43L117.89,317s-9.69,2.13-13.51,3.86c-.36.16-.36,8.64-1.36,10.86l3.17,6.68s1.83,13.22,2.21,19.1c.17,2.7-.5,26.09-.5,26.09s.95.46,8.16,1.26,25.2-.29,25.32-1.14-3.49-31.69-3.65-33.28c-.24-2.46.71-13.78.71-13.78,1.36,1.82,4.82,10.06,8.42,14,2.13,2.3,12.63,3.71,14.61,3.78,4.31.14,12.18,1,12.41.58.18-.25.68-7,.19-7.14s-15-1-18.78-3c-1.36-.73-5.46-9.65-5.46-9.65S143.2,321.29,140.08,319.89Z" transform="translate(-54.37 -60.3)"/><rect class="cls-29" x="40.76" y="280.32" width="30.56" height="42.32" rx="6.42"/><path class="cls-29" d="M120.28,392.77a14,14,0,0,1-10.87-4.5c-6.1-6.74-5-18.6-5-19.1a1.7,1.7,0,0,1,3.39.33c0,.14-1,10.88,4.1,16.49a10.62,10.62,0,0,0,8.34,3.38,1.7,1.7,0,1,1,0,3.4Z" transform="translate(-54.37 -60.3)"/><rect class="cls-46" x="96.03" y="241.68" width="17.7" height="1.93" rx="0.48"/><rect class="cls-46" x="96.03" y="245.82" width="17.7" height="1.93" rx="0.48"/><rect class="cls-46" x="96.03" y="250.56" width="17.7" height="21.8" rx="1.61"/><rect class="cls-46" x="117.31" y="241.68" width="31.52" height="30.68" rx="2.54"/><rect class="cls-47" x="110.48" y="77.31" width="0.57" height="59.34"/><rect class="cls-47" x="150.69" y="77.31" width="0.57" height="59.34"/><rect class="cls-47" x="190.9" y="77.31" width="0.57" height="59.34"/><rect class="cls-47" x="231.11" y="77.31" width="0.57" height="59.34"/><rect class="cls-47" x="271.33" y="77.31" width="0.56" height="59.34"/><rect class="cls-48" x="110.76" y="140.16" width="6.4" height="2.06"/><rect class="cls-49" x="110.76" y="69.99" width="9.63" height="1.55"/><rect class="cls-49" x="110.76" y="72.85" width="13.66" height="1.54"/><rect class="cls-49" x="150.54" y="69.99" width="11.31" height="1.55"/><rect class="cls-49" x="150.54" y="72.85" width="7.23" height="1.54"/><rect class="cls-49" x="191.47" y="69.99" width="7.01" height="1.55"/><rect class="cls-49" x="191.47" y="72.85" width="8.17" height="1.54"/><rect class="cls-49" x="231.68" y="69.99" width="10.21" height="1.55"/><rect class="cls-49" x="231.68" y="72.85" width="8.17" height="1.54"/><rect class="cls-49" x="271.61" y="69.99" width="6.1" height="1.55"/><rect class="cls-49" x="271.61" y="72.85" width="4.88" height="1.54"/><rect class="cls-48" x="150.97" y="140.16" width="6.4" height="2.06"/><rect class="cls-48" x="191.47" y="140.16" width="6.4" height="2.06"/><rect class="cls-48" x="231.68" y="140.16" width="6.4" height="2.06"/><rect class="cls-48" x="271.89" y="140.16" width="6.4" height="2.06"/><path class="cls-50" d="M312,179.31c-12.54,0-23.44-5.42-34.81-11.07-14-7-28.54-14.2-47.87-12.22-12.35,1.26-20.1,6.29-26.93,10.72-6.2,4-12.05,7.55-20,7.86-12.81.48-17.26-5-17.33-5.31v-3.51h0c0,.06,2.81,6.19,17.31,6.12,7.14,0,12.41-3.46,18.52-7.42,7.09-4.6,15.13-9.81,28.12-11.14,20.11-2.06,35,5.34,49.35,12.48,15,7.48,29.4,14.5,47.55,8.41v2.89A41.07,41.07,0,0,1,312,179.31Z" transform="translate(-54.37 -60.3)"/><path class="cls-51" d="M236.76,178.64c-9.26,0-16.6-6.23-23.79-12.32-5.45-4.62-11.11-9.35-17.64-11.68-19.92-7.11-30.11,5.88-30.2,6v-3.95c.11-.13,1.92-2.49,7.18-4.75,4.79-2.05,12.83-3.69,23.91.17,7,2.44,12.85,7.38,18.49,12.16,11.44,9.7,21.32,18.08,38.48,5,13-9.94,25.24-19.41,37.29-22.87,11.79-3.38,24.08-.9,35.58,10.6l-.08,3.59c-24.44-24.55-45.24-9-71.16,10.82C248,176.61,242,178.64,236.76,178.64Z" transform="translate(-54.37 -60.3)"/><path class="cls-52" d="M424.33,274.71H364.22a8.3,8.3,0,0,1-8.28-8.29v-53.2a8.3,8.3,0,0,1,8.28-8.28h60.11a8.3,8.3,0,0,1,8.28,8.28v53.2A8.3,8.3,0,0,1,424.33,274.71ZM364.22,206a7.28,7.28,0,0,0-7.27,7.27v53.2a7.29,7.29,0,0,0,7.27,7.28h60.11a7.29,7.29,0,0,0,7.27-7.28v-53.2a7.28,7.28,0,0,0-7.27-7.27Z" transform="translate(-54.37 -60.3)"/><path class="cls-53" d="M459.94,424.34s.54,3.82.61,4.39,6.06-.34,6.06-.34l.48-4.54S460.68,423.81,459.94,424.34Z" transform="translate(-54.37 -60.3)"/><path class="cls-54" d="M460.49,428.25a16.17,16.17,0,0,1-3.74,3.3c-1.83,1-4.72,1.4-5.8,2.44-.79.74-2.86,4,4.76,3.9s11.3.46,12.12-.78-1.18-9.12-1.18-9.12S464.84,428.64,460.49,428.25Z" transform="translate(-54.37 -60.3)"/><path class="cls-53" d="M417,424.34s.55,3.82.61,4.39,6.06-.34,6.06-.34l.49-4.54S417.77,423.81,417,424.34Z" transform="translate(-54.37 -60.3)"/><path class="cls-54" d="M417.57,428.25a16.27,16.27,0,0,1-3.73,3.3c-1.84,1-8.59,1.83-9.68,2.86-.78.75-2.08,3.77,8.64,3.48,7.62-.2,11.3.46,12.12-.78s-1.19-9.12-1.19-9.12S422,428.69,417.57,428.25Z" transform="translate(-54.37 -60.3)"/><path class="cls-55" d="M457.81,325.83s3.19,9.47,2.77,17.63,1.64,17.09,2.49,25.61c.94,9.51,4.8,32,4.94,37.09s-.6,21.31-.6,21.31l-7.72.18s-6.48-39.33-8.16-43.34-10-32.63-10.29-35.84S457.81,325.83,457.81,325.83Z" transform="translate(-54.37 -60.3)"/><path class="cls-54" d="M425.35,327.52s-4.24,22.36-4.8,27.36-.93,24.16-1.21,27.29S417.47,423,416,427.65h9.87s7.57-27.43,7.57-40.4,5.86-28.21,9.64-36.77,12.43-8.77,14.75-24.65C457.81,325.83,428.5,322.48,425.35,327.52Z" transform="translate(-54.37 -60.3)"/><path class="cls-37" d="M445.41,251.08s-7.78-2.9-11.37,3-3.24,17.78.68,19.24,9.82.69,11.82-3,3.82-9.07,3.74-12.65S447.45,252.12,445.41,251.08Z" transform="translate(-54.37 -60.3)"/><path class="cls-37" d="M436,273a6.57,6.57,0,0,1-.21,3c-.52,1,9.79,1,9.79,1A68.66,68.66,0,0,1,448,267C449.62,262.35,436,273,436,273Z" transform="translate(-54.37 -60.3)"/><path class="cls-56" d="M448,267s-.71,1.18-3.61.72-6.45-4.31-7.66-4.74-1.22-1.14-1.22-1.14l-.76,1.11-1.29.08s1.17-3.45-.6-4.86S434.73,247,444,250.2c0,0,7.15,2,6.9,6S449.63,264.94,448,267Z" transform="translate(-54.37 -60.3)"/><path class="cls-29" d="M435.21,275.9s0-1.92.9-2.11,9.61-1,10.68-.6v2.23S444.73,276.69,435.21,275.9Z" transform="translate(-54.37 -60.3)"/><path class="cls-37" d="M435.73,260.33c.16-.69,1.9-2.64,2.56-.55s-1,4.9-1.93,4.66S435.31,262.05,435.73,260.33Z" transform="translate(-54.37 -60.3)"/><path class="cls-57" d="M435.21,275.9s-4.79,1.72-10.33,4.07a11.66,11.66,0,0,0-7.07,9.43c-.37,3.74-4.35,23.59-5.1,25.27s-9.57,28.66-9.88,29.22,7.2,3.68,7.7,3.43,8.55-24.61,9.36-26.41c0,0,4.63-14.61,4.76-16.79,0,0,.13,6.21.38,7.95s-4.12,35.56-4,36.5,19.86,2.11,27.76,1.24a96.64,96.64,0,0,0,14.28-2.69s-6.22-26.68-6-29.64c.42-6.45,2.57-18.6,2.57-18.6L466.05,311l-8.24,21.21,1.89,6.45s15.32-23.15,15.81-25.27-.75-4.81-1.55-6.55-6.12-15-7.37-16.86-3.34-9.34-8.42-11.42a79.67,79.67,0,0,0-11.38-3.17Z" transform="translate(-54.37 -60.3)"/><rect class="cls-58" x="391.23" y="325.9" width="37.26" height="25.99" transform="translate(42.66 -151.49) rotate(14.38)"/><path class="cls-59" d="M399.68,349.39s-1,1.67-1.41,2.15.93.77,1.49.29S399.68,349.39,399.68,349.39Z" transform="translate(-54.37 -60.3)"/><path class="cls-60" d="M407.2,355.09a4,4,0,0,0,.74-1s.18-.76.34-1.29c.05-.17.1-.31.14-.41a7.39,7.39,0,0,0,.83-2.19c.16-1,.61-5.64.61-5.64l-2.8-.71-2.25-.47s-4.85,4.84-5.11,5.78l-.06.27a9,9,0,0,0,.08,1.93c0,.16,0,1.76.38,2.06a1.56,1.56,0,0,0,1.48.36,3.85,3.85,0,0,0,1.94.73,2.32,2.32,0,0,0,2,.37S406.58,355.48,407.2,355.09Z" transform="translate(-54.37 -60.3)"/><path class="cls-57" d="M418.11,325.88s-6.4,19.4-7.58,21.44a21.14,21.14,0,0,1-7.7-3.43l7-20.94Z" transform="translate(-54.37 -60.3)"/><path class="cls-37" d="M324.79,325.41a23.7,23.7,0,0,0-2.8-.17c-.9.05-4.88,2.28-6.22,2.22s-10.3-3-10.71-3.23.11-.87.11-.87L325,321.41Z" transform="translate(-54.37 -60.3)"/><path class="cls-61" d="M340.72,293.46l2,20.88s.89,2.58-5,3.53-15.29,3-15.29,3,.16,7,.94,7c2.28.12,19.21-2.75,25.92-4.17,5.32-1.12,2-29.58,2-29.58Z" transform="translate(-54.37 -60.3)"/><path class="cls-37" d="M324.5,318.39a23.29,23.29,0,0,1-2.74.58c-.9.09-5.16-1.53-6.48-1.27s-9.74,4.49-10.11,4.78.23.85.23.85l19.89-1Z" transform="translate(-54.37 -60.3)"/><path class="cls-36" d="M346.48,428.77s-4.12,2.5-6,3.44-9.18,1.28-9.89,2-.42,2.88.79,3.09,10.11.9,13.06.18,8.51.37,9.73-.07.36-7-.14-8.51S346.48,428.77,346.48,428.77Z" transform="translate(-54.37 -60.3)"/><path class="cls-62" d="M346.1,426.06l.38,2.71s5.57,1,7.24.09l-.45-2.81Z" transform="translate(-54.37 -60.3)"/><path class="cls-36" d="M335.13,331.42c-.16,1.86-.28,5.94-.38,10.23,0,1,0,1.91-.05,2.86-.11,5.77-.16,11.11-.16,11.11.27,7.26,1.42,23,3.58,26.5,2.92,4.76,6.3,44.37,6.3,44.37l10.71,1.15s.66-26.48-.94-33.4C352.41,386.52,349,376,350.94,369c1.23-4.41,3.79-18.6,3.79-18.6s2.74-16-.1-28.22C353.92,319.08,335.13,331.42,335.13,331.42Z" transform="translate(-54.37 -60.3)"/><path class="cls-36" d="M328.09,428.77s-4.13,2.5-6,3.44-9.17,1.28-9.88,2-.43,2.88.79,3.09,10.1.9,13.06.18,8.51.37,9.73-.07.35-7-.14-8.51S328.09,428.77,328.09,428.77Z" transform="translate(-54.37 -60.3)"/><path class="cls-62" d="M327.71,426.06l.38,2.71s5.56,1,7.23.09l-.45-2.81Z" transform="translate(-54.37 -60.3)"/><path class="cls-36" d="M325.41,427.29h11s3.68-21.23,4-30.59h0c0-1,0-1.89,0-2.58-.16-2-.4-4.16-.62-6.41v0c-.65-6.7-1.13-14.05,1.09-19,1.86-4.18,6.48-17.85,6.48-17.85s5-15.38,4-27.92c-.25-3.13-19.76,4.74-19.76,4.74a113.84,113.84,0,0,0-2.2,11.83c-2.64,24.34-1.65,40.2-1.65,40.2C329.22,385,325.41,427.29,325.41,427.29Z" transform="translate(-54.37 -60.3)"/><path class="cls-63" d="M333.26,275.7s-3.81,9.06-4.6,13.91,2.43,18.13,2.58,20.87c.45,8.51.66,17.93.66,17.93l18.59,8.29a171.5,171.5,0,0,0,3.3-16.83,75.27,75.27,0,0,0-.49-22.58c-2.59-16.69-13-24.77-13-24.77Z" transform="translate(-54.37 -60.3)"/><path class="cls-37" d="M319.16,259.4s-1.29,5,.06,5.39c1.11.32.06,5.16,0,5.93s2.06.79,2.61,1.14,3.2,5.62,4.92,5.37,8.63-4.74,10.16-7.38.84-12.74-1.54-16.48S321.46,250.68,319.16,259.4Z" transform="translate(-54.37 -60.3)"/><path class="cls-37" d="M329.65,271.69s.13.49.32,1.24q.13.48.27,1.08c.08.3.15.62.23.95a3.59,3.59,0,0,1,.08.35c.13.55.26,1.13.37,1.7a18.08,18.08,0,0,1,.48,3.7c-.1,2.23,7.85-8.3,7.85-8.3a106.87,106.87,0,0,1-2.67-15C335.77,249.42,329.65,271.69,329.65,271.69Z" transform="translate(-54.37 -60.3)"/><path class="cls-36" d="M318.92,260.47a7,7,0,0,1-.06-8.76c3.53-4.62,13.18-.43,14.15-.42s6.15-.91,5.88,8.85c-.25,8.69-.68,8.32-.68,8.32s-2.67-3.65-3.8-4.11c-1.75-.71-5,.35-5,.35s.54-4.5-2-4.49S321.15,259,318.92,260.47Z" transform="translate(-54.37 -60.3)"/><path class="cls-37" d="M331.47,261.71c.07-.62.17-3.23,2.6-2.31s.18,6.33-.16,6.48S330.84,266.91,331.47,261.71Z" transform="translate(-54.37 -60.3)"/><path class="cls-64" d="M330.71,331.43s.85-4,1-4.61L356.81,331l-.25,3.25S338.48,333.15,330.71,331.43Z" transform="translate(-54.37 -60.3)"/><path class="cls-65" d="M356.89,311.37a79.27,79.27,0,0,0,7.53,36.2c1.08,2.29-16.61,2.17-16.61,2.17Z" transform="translate(-54.37 -60.3)"/><path class="cls-65" d="M331,295.84q.49,2.9.86,5.82h0c.49,3.88.82,7.77,1,11.56l.06,1.19c0,.63.06,1.27.09,1.9l.09,2.5a86.33,86.33,0,0,0,6.88,30.86s12.68.87,15.95-.91a261.38,261.38,0,0,0,1.24-38.65c-.08-1.48-.18-3-.3-4.43h0c-1.29-15.56-7.37-30.61-16.69-33.15C340,272.73,329.32,285.72,331,295.84Z" transform="translate(-54.37 -60.3)"/><rect class="cls-66" x="290" y="322.88" width="33.12" height="3.03" transform="translate(571.6 575.84) rotate(177.68)"/><rect class="cls-66" x="269.33" y="308.96" width="33.12" height="3.03" transform="translate(35.95 624.19) rotate(-109.76)"/><path class="cls-67" d="M335.32,377.77c.94,6,5,18.65,5.06,18.93,0-1,0-1.89,0-2.58-.16-2-.4-4.16-.62-6.41v0c-.21-2-1.62-5.57-2.55-8s-1.86-12.27-1.86-12.27A31.17,31.17,0,0,0,335.32,377.77Z" transform="translate(-54.37 -60.3)"/><path class="cls-68" d="M330.55,275.31c.13.55.26,1.13.37,1.7,2.34-1.6,5-5.87,5.19-6.13C335.16,272.26,330.62,275.26,330.55,275.31Z" transform="translate(-54.37 -60.3)"/><path class="cls-69" d="M333,312.24l.06,1.16c0,.62.07,1.24.09,1.85,2.85-.58,8.25-2,9.88-4.91,2.22-3.93-3.31-13.1-3.43-13.3,0,.24,2.36,11.54,0,12.67C338.06,310.44,334.88,311.43,333,312.24Z" transform="translate(-54.37 -60.3)"/><path class="cls-70" d="M331.09,283.41a68.57,68.57,0,0,0-.23,21.2c1.42,9.65,2,16.58,2,16.58l-.71,2.72-1.3-2.09s-2.24-12.37-2.66-17.51-.87-12.14,2.13-20.95Z" transform="translate(-54.37 -60.3)"/><path class="cls-70" d="M331.21,283.42a1.34,1.34,0,0,1-.62.43c-.38.12-1-.43.57-3.39Z" transform="translate(-54.37 -60.3)"/><path class="cls-71" d="M339,271.31s-4.9,6.23-8.11,7.93l.12,5.24,9.28-12Z" transform="translate(-54.37 -60.3)"/><path class="cls-65" d="M349.6,288.41c-.37-2.38-3.15-12.51-8.88-11s-4.11,8.38-2.86,13.57c1.31,5.44,6,18.56,5.17,19.38s-7.44,3.82-8.89,4.32-10.62,3.41-11.33,3.72,3.55,7.81,3.55,7.81,22.89-7.81,26.77-10.33S349.6,288.41,349.6,288.41Z" transform="translate(-54.37 -60.3)"/></g></g></svg>